<svg width="113" height="126" viewBox="0 0 113 126" fill="none" xmlns="http://www.w3.org/2000/svg">
<rect width="113" height="126" rx="15" fill="url(#paint0_linear_715_1787)"/>
<path d="M25.0508 103H22.1964V87.7132H25.0508V103ZM30.338 93.4854C30.5565 93.2669 30.7855 93.0661 31.0252 92.8828C31.2718 92.6925 31.5291 92.5339 31.7969 92.4071C32.0718 92.2732 32.3643 92.171 32.6744 92.1005C32.9845 92.023 33.3228 91.9842 33.6892 91.9842C34.2813 91.9842 34.8063 92.0864 35.2644 92.2908C35.7226 92.4881 36.1031 92.77 36.4062 93.1365C36.7163 93.496 36.9489 93.9294 37.1039 94.4369C37.266 94.9373 37.3471 95.4905 37.3471 96.0966V103H34.7359V96.0966C34.7359 95.4341 34.5843 94.9232 34.2813 94.5637C33.9782 94.1972 33.5166 94.014 32.8964 94.014C32.4453 94.014 32.0224 94.1162 31.6278 94.3206C31.2331 94.525 30.8595 94.8034 30.5071 95.1557V103H27.8959V92.1534H29.4923C29.8305 92.1534 30.0526 92.3119 30.1583 92.6291L30.338 93.4854ZM43.3015 103.169C42.3571 103.169 41.6311 102.905 41.1237 102.376C40.6233 101.841 40.3731 101.104 40.3731 100.167V94.1091H39.263C39.1221 94.1091 39.0023 94.0633 38.9036 93.9717C38.8049 93.8801 38.7556 93.7427 38.7556 93.5594V92.5234L40.4999 92.2379L41.0497 89.2778C41.0849 89.1369 41.1519 89.0276 41.2505 88.9501C41.3492 88.8726 41.4761 88.8338 41.6311 88.8338H42.9843V92.2485H45.881V94.1091H42.9843V99.987C42.9843 100.325 43.0654 100.59 43.2275 100.78C43.3966 100.97 43.6257 101.065 43.9146 101.065C44.0767 101.065 44.2106 101.048 44.3164 101.013C44.4291 100.97 44.5243 100.928 44.6018 100.886C44.6864 100.843 44.7604 100.805 44.8238 100.769C44.8872 100.727 44.9507 100.706 45.0141 100.706C45.0916 100.706 45.155 100.727 45.2044 100.769C45.2537 100.805 45.3066 100.861 45.363 100.939L46.1453 102.207C45.7647 102.524 45.3277 102.764 44.8344 102.926C44.341 103.088 43.8301 103.169 43.3015 103.169ZM54.4582 96.3292C54.4582 95.9909 54.4088 95.6738 54.3101 95.3778C54.2185 95.0747 54.0776 94.8104 53.8873 94.5849C53.697 94.3593 53.4538 94.1831 53.1578 94.0563C52.8689 93.9224 52.5306 93.8554 52.1429 93.8554C51.3888 93.8554 50.7933 94.0704 50.3563 94.5003C49.9264 94.9302 49.6515 95.5399 49.5317 96.3292H54.4582ZM49.4788 97.9044C49.5211 98.4612 49.6198 98.944 49.7749 99.3527C49.9299 99.7545 50.1343 100.089 50.388 100.357C50.6417 100.618 50.9413 100.815 51.2866 100.949C51.639 101.076 52.0266 101.139 52.4495 101.139C52.8724 101.139 53.2353 101.09 53.5384 100.991C53.8485 100.893 54.1163 100.783 54.3419 100.664C54.5744 100.544 54.7753 100.435 54.9445 100.336C55.1206 100.237 55.2898 100.188 55.4519 100.188C55.6704 100.188 55.8325 100.269 55.9382 100.431L56.6888 101.383C56.3998 101.721 56.0756 102.006 55.7162 102.239C55.3568 102.464 54.9797 102.648 54.585 102.789C54.1974 102.922 53.7992 103.018 53.3904 103.074C52.9887 103.13 52.5975 103.159 52.2169 103.159C51.4628 103.159 50.7616 103.035 50.1132 102.789C49.4648 102.535 48.9009 102.165 48.4217 101.679C47.9424 101.185 47.5654 100.579 47.2905 99.8602C47.0156 99.1343 46.8782 98.2956 46.8782 97.3441C46.8782 96.6041 46.998 95.9099 47.2376 95.2615C47.4773 94.606 47.8191 94.0387 48.2631 93.5594C48.7142 93.0731 49.2604 92.689 49.9017 92.4071C50.5501 92.1252 51.2796 91.9842 52.0901 91.9842C52.7737 91.9842 53.4045 92.0935 53.9824 92.3119C54.5603 92.5304 55.0572 92.8511 55.473 93.274C55.8889 93.6898 56.2131 94.2043 56.4456 94.8174C56.6853 95.4236 56.8051 96.1178 56.8051 96.9001C56.8051 97.2948 56.7628 97.5626 56.6782 97.7035C56.5936 97.8375 56.4315 97.9044 56.1919 97.9044H49.4788ZM61.2279 94.0351C61.5662 93.3867 61.9679 92.8793 62.4331 92.5128C62.8982 92.1393 63.448 91.9525 64.0823 91.9525C64.5827 91.9525 64.9844 92.0617 65.2874 92.2802L65.1183 94.236C65.0831 94.3629 65.0302 94.4545 64.9597 94.5109C64.8963 94.5602 64.8082 94.5849 64.6954 94.5849C64.5897 94.5849 64.4311 94.5673 64.2197 94.532C64.0153 94.4968 63.8144 94.4792 63.6171 94.4792C63.3281 94.4792 63.0709 94.5214 62.8454 94.606C62.6198 94.6906 62.4154 94.8139 62.2322 94.976C62.056 95.1311 61.8974 95.3214 61.7565 95.5469C61.6226 95.7724 61.4957 96.0297 61.3759 96.3186V103H58.7647V92.1534H60.2976C60.5654 92.1534 60.7522 92.2027 60.8579 92.3014C60.9636 92.393 61.0341 92.5621 61.0693 92.8088L61.2279 94.0351ZM73.3304 96.3292C73.3304 95.9909 73.2811 95.6738 73.1824 95.3778C73.0908 95.0747 72.9498 94.8104 72.7595 94.5849C72.5692 94.3593 72.3261 94.1831 72.0301 94.0563C71.7411 93.9224 71.4028 93.8554 71.0152 93.8554C70.2611 93.8554 69.6655 94.0704 69.2286 94.5003C68.7986 94.9302 68.5238 95.5399 68.404 96.3292H73.3304ZM68.3511 97.9044C68.3934 98.4612 68.4921 98.944 68.6471 99.3527C68.8022 99.7545 69.0066 100.089 69.2603 100.357C69.514 100.618 69.8135 100.815 70.1589 100.949C70.5113 101.076 70.8989 101.139 71.3218 101.139C71.7446 101.139 72.1076 101.09 72.4107 100.991C72.7208 100.893 72.9886 100.783 73.2141 100.664C73.4467 100.544 73.6476 100.435 73.8167 100.336C73.9929 100.237 74.1621 100.188 74.3242 100.188C74.5426 100.188 74.7047 100.269 74.8105 100.431L75.5611 101.383C75.2721 101.721 74.9479 102.006 74.5885 102.239C74.229 102.464 73.852 102.648 73.4573 102.789C73.0696 102.922 72.6714 103.018 72.2627 103.074C71.8609 103.13 71.4698 103.159 71.0892 103.159C70.3351 103.159 69.6338 103.035 68.9854 102.789C68.337 102.535 67.7732 102.165 67.2939 101.679C66.8147 101.185 66.4376 100.579 66.1628 99.8602C65.8879 99.1343 65.7505 98.2956 65.7505 97.3441C65.7505 96.6041 65.8703 95.9099 66.1099 95.2615C66.3495 94.606 66.6913 94.0387 67.1354 93.5594C67.5864 93.0731 68.1326 92.689 68.774 92.4071C69.4224 92.1252 70.1518 91.9842 70.9623 91.9842C71.646 91.9842 72.2768 92.0935 72.8547 92.3119C73.4326 92.5304 73.9295 92.8511 74.3453 93.274C74.7611 93.6898 75.0853 94.2043 75.3179 94.8174C75.5575 95.4236 75.6773 96.1178 75.6773 96.9001C75.6773 97.2948 75.6351 97.5626 75.5505 97.7035C75.4659 97.8375 75.3038 97.9044 75.0642 97.9044H68.3511ZM84.2549 94.2677C84.1844 94.3805 84.1104 94.4615 84.0328 94.5109C83.9553 94.5532 83.8566 94.5743 83.7368 94.5743C83.61 94.5743 83.4725 94.5391 83.3245 94.4686C83.1836 94.3981 83.018 94.3206 82.8277 94.236C82.6374 94.1444 82.4189 94.0633 82.1722 93.9929C81.9326 93.9224 81.6471 93.8871 81.3159 93.8871C80.8014 93.8871 80.3962 93.9964 80.1001 94.2149C79.8112 94.4333 79.6667 94.7188 79.6667 95.0712C79.6667 95.3038 79.7407 95.5011 79.8887 95.6632C80.0438 95.8182 80.2446 95.9557 80.4913 96.0755C80.745 96.1953 81.0305 96.3045 81.3476 96.4032C81.6648 96.4948 81.9854 96.597 82.3096 96.7098C82.6409 96.8226 82.9651 96.9529 83.2822 97.101C83.5994 97.2419 83.8813 97.4252 84.128 97.6507C84.3817 97.8692 84.5826 98.1335 84.7306 98.4436C84.8856 98.7537 84.9632 99.1272 84.9632 99.5642C84.9632 100.086 84.868 100.568 84.6777 101.013C84.4945 101.449 84.2196 101.83 83.8531 102.154C83.4866 102.471 83.0321 102.722 82.4894 102.905C81.9537 103.081 81.3335 103.169 80.6287 103.169C80.2552 103.169 79.8887 103.134 79.5293 103.063C79.1769 103 78.8351 102.908 78.5038 102.789C78.1796 102.669 77.8766 102.528 77.5946 102.366C77.3198 102.204 77.0766 102.027 76.8652 101.837L77.4678 100.843C77.5453 100.724 77.6369 100.632 77.7426 100.568C77.8484 100.505 77.9823 100.473 78.1444 100.473C78.3065 100.473 78.458 100.519 78.599 100.611C78.747 100.702 78.9161 100.801 79.1064 100.907C79.2967 101.013 79.5187 101.111 79.7724 101.203C80.0332 101.294 80.3609 101.34 80.7556 101.34C81.0657 101.34 81.33 101.305 81.5485 101.235C81.774 101.157 81.9573 101.058 82.0982 100.939C82.2462 100.819 82.3519 100.681 82.4154 100.526C82.4858 100.364 82.5211 100.198 82.5211 100.029C82.5211 99.7756 82.4436 99.5677 82.2885 99.4056C82.1405 99.2435 81.9396 99.1025 81.6859 98.9827C81.4392 98.8629 81.1538 98.7572 80.8296 98.6656C80.5124 98.5669 80.1847 98.4612 79.8464 98.3484C79.5152 98.2357 79.1875 98.1053 78.8632 97.9573C78.5461 97.8022 78.2607 97.6084 78.0069 97.3758C77.7603 97.1432 77.5594 96.8578 77.4043 96.5195C77.2563 96.1812 77.1823 95.7724 77.1823 95.2932C77.1823 94.8492 77.2704 94.4263 77.4466 94.0246C77.6228 93.6228 77.8801 93.274 78.2184 92.978C78.5637 92.6749 78.9901 92.4353 79.4976 92.2591C80.012 92.0758 80.6041 91.9842 81.2736 91.9842C82.0207 91.9842 82.7008 92.1076 83.314 92.3542C83.9271 92.6009 84.4381 92.9251 84.8469 93.3268L84.2549 94.2677ZM90.5441 103.169C89.5997 103.169 88.8737 102.905 88.3663 102.376C87.8659 101.841 87.6157 101.104 87.6157 100.167V94.1091H86.5056C86.3647 94.1091 86.2449 94.0633 86.1462 93.9717C86.0475 93.8801 85.9982 93.7427 85.9982 93.5594V92.5234L87.7425 92.2379L88.2923 89.2778C88.3275 89.1369 88.3945 89.0276 88.4931 88.9501C88.5918 88.8726 88.7187 88.8338 88.8737 88.8338H90.2269V92.2485H93.1236V94.1091H90.2269V99.987C90.2269 100.325 90.308 100.59 90.4701 100.78C90.6392 100.97 90.8683 101.065 91.1572 101.065C91.3193 101.065 91.4532 101.048 91.559 101.013C91.6717 100.97 91.7669 100.928 91.8444 100.886C91.929 100.843 92.003 100.805 92.0664 100.769C92.1298 100.727 92.1933 100.706 92.2567 100.706C92.3342 100.706 92.3976 100.727 92.447 100.769C92.4963 100.805 92.5492 100.861 92.6056 100.939L93.3879 102.207C93.0073 102.524 92.5703 102.764 92.077 102.926C91.5836 103.088 91.0727 103.169 90.5441 103.169Z" fill="white"/>
<path d="M49.0352 64.2614C49.0352 67.2387 46.6209 69.653 43.6436 69.653H36.5371C33.5597 69.653 31.1455 67.2387 31.1455 64.2614V47.0445C31.1455 44.0672 33.5597 41.653 36.5371 41.653H43.6436C46.6209 41.653 49.0352 44.0672 49.0352 47.0445V64.2614ZM45.9241 47.0445C45.9241 45.7853 44.9028 44.7641 43.6436 44.7641H36.5371C35.2778 44.7641 34.2566 45.7853 34.2566 47.0445V64.2622C34.2566 65.5214 35.2778 66.5426 36.5371 66.5426H43.6436C44.9028 66.5426 45.9241 65.5214 45.9241 64.2622V47.0445Z" fill="white"/>
<path d="M41.2576 62.8474C41.2576 63.5995 40.6478 64.2085 39.8965 64.2085H39.5076C38.7563 64.2085 38.1465 63.5995 38.1465 62.8474V62.4585C38.1465 61.7064 38.7563 61.0974 39.5076 61.0974H39.8965C40.6478 61.0974 41.2576 61.7064 41.2576 62.4585V62.8474Z" fill="white"/>
<path d="M60.7598 69.6802C56.8888 69.6802 52.7308 69.1886 51.3207 63.3219C51.2927 63.2036 51.3681 63.0807 51.3681 62.9586V43.298C51.3681 43.081 51.3238 42.8655 51.4125 42.6672L51.6754 41.9711C52.1094 40.6279 53.3732 38.5807 55.4141 35.4105C56.8095 33.2421 58.2421 30.999 58.6878 29.8712C59.4461 27.9524 59.443 25.3655 59.38 24.5317C59.3357 23.9453 59.6235 23.3837 60.1267 23.0812C60.2566 23.0026 61.4372 22.319 62.964 22.319C63.937 22.319 64.8346 22.5889 65.6334 23.1193C67.7964 24.5574 70.2191 26.8044 69.7423 31.454C69.5938 32.9201 68.9794 34.2952 68.3859 35.626C67.9962 36.5002 67.6284 37.3262 67.4222 38.1063C67.3802 38.265 67.3756 38.6959 67.3732 39.0567C69.0696 39.203 70.7768 39.3321 72.3129 39.3321C73.2812 39.3321 74.0691 39.3243 74.7054 39.3173C75.529 39.3087 76.1007 39.3041 76.502 39.3189C76.7952 39.3251 77.0706 39.3344 77.3241 39.3679C79.0104 39.5926 80.5091 40.4614 81.5428 41.8132C82.5765 43.165 83.0214 44.8387 82.7966 46.5257C82.5788 48.1669 81.724 49.6586 80.4314 50.6799C80.9999 51.7275 81.2255 52.9323 81.066 54.1223C80.8825 55.5036 80.2167 56.7356 79.176 57.6386C79.176 57.6596 79.1776 57.6799 79.1791 57.697C79.5284 58.5113 79.6505 59.4089 79.5322 60.301C79.3619 61.5789 78.6868 62.7432 77.6811 63.5365C77.9487 64.1899 78.0374 64.9186 77.9355 65.6762C77.7286 67.2209 76.6319 68.5244 75.1215 69.0385C74.2076 69.4997 73.0534 69.5962 71.5149 69.5962C70.9961 69.5962 70.4175 69.5853 69.775 69.5736C68.9918 69.5589 68.1098 69.5425 67.1197 69.5425C65.8854 69.5425 64.7249 69.5806 63.6026 69.6172C62.5954 69.6499 61.6472 69.6802 60.7598 69.6802ZM54.4792 62.7689C55.257 66.0363 57.0039 66.5699 60.8492 66.5699C61.7056 66.5699 62.5744 66.5403 63.545 66.5084C64.6938 66.4711 65.8574 66.4322 67.1422 66.4322C68.1541 66.4322 69.0431 66.4485 69.8435 66.4641C70.4657 66.4757 71.0195 66.4859 71.5203 66.4859C71.9691 66.4859 73.3334 66.4859 73.7417 66.251C73.8467 66.1911 73.9564 66.1429 74.0722 66.1086C74.4075 66.0099 74.794 65.7034 74.8524 65.2632C74.8765 65.082 74.878 64.8222 74.7489 64.6099C74.4145 64.0631 74.325 63.325 74.5062 62.632C74.6672 62.0183 75.0242 61.5299 75.5135 61.2561C76.0299 60.966 76.3706 60.4674 76.4476 59.8895C76.4935 59.545 76.4445 59.2004 76.306 58.8947C75.9521 58.1146 75.8635 56.2355 76.957 55.4305C77.5264 55.0144 77.888 54.4054 77.9806 53.7124C78.0615 53.1073 77.9215 52.4944 77.587 51.9842C76.9026 50.9404 77.2782 49.0846 78.3166 48.3737C79.0819 47.8519 79.5898 47.029 79.7111 46.1151C79.8262 45.2517 79.5984 44.3954 79.0695 43.7032C78.5406 43.0117 77.7737 42.5676 76.9104 42.4525C76.7704 42.4339 76.6327 42.43 76.4958 42.43C76.4771 42.43 76.4048 42.43 76.3854 42.4292C76.0214 42.4144 75.4808 42.4206 74.7357 42.4292C74.0909 42.4354 73.2937 42.444 72.3121 42.444C70.335 42.444 68.179 42.2526 66.0938 42.0683L65.6217 42.0263C65.2048 41.9897 64.8198 41.786 64.5546 41.4624C64.2894 41.1381 64.1657 40.7212 64.2123 40.3051C64.2567 39.9123 64.259 39.4884 64.2614 39.0785C64.266 38.4501 64.2699 37.8582 64.4138 37.3122C64.6845 36.2886 65.1208 35.3079 65.5439 34.359C66.0596 33.2016 66.5472 32.1081 66.646 31.1366C66.9657 28.0193 65.4692 26.7461 63.909 25.7085C63.4991 25.4371 62.9656 25.3842 62.5067 25.4752C62.4966 26.8099 62.3465 29.0491 61.5687 31.0153C61.0095 32.4262 59.5511 34.6934 58.0065 37.0936C56.6135 39.2566 54.8806 41.9501 54.5796 42.9627C54.5609 43.0257 54.627 43.088 54.5998 43.1486L54.4792 43.6277V62.7689Z" fill="white"/>
<path d="M67.6501 64.2085C67.6455 64.2085 67.64 64.2085 67.6353 64.2085C67.5467 64.2085 67.4666 64.3524 67.3935 64.34C66.9696 64.333 66.6289 64.0646 66.6289 63.6392C66.6289 63.2091 66.9766 62.8995 67.4067 62.8995C67.6602 62.8995 68.431 62.9182 68.4466 63.6828C68.4489 63.7932 68.424 63.7551 68.3766 63.8508C68.2653 64.1448 67.9815 64.2085 67.6501 64.2085Z" fill="white"/>
<path d="M61.9605 64.7406C60.0713 64.7406 58.4528 64.3634 56.9579 62.6414C56.6763 62.317 56.7113 61.8263 57.0356 61.5447C57.36 61.2616 57.8508 61.2974 58.1323 61.6225C59.6684 63.3904 61.2263 63.2823 64.0543 63.0839C64.4121 63.059 64.7846 63.0334 65.1743 63.01C65.5912 62.9828 65.9708 63.3118 65.9972 63.7404C66.0221 64.1689 65.6954 64.5368 65.2669 64.5625C64.8834 64.585 64.5155 64.6115 64.1624 64.6356C63.3878 64.6893 62.6551 64.7406 61.9605 64.7406Z" fill="white"/>
<defs>
<linearGradient id="paint0_linear_715_1787" x1="5.15671e-07" y1="64" x2="112.759" y2="64" gradientUnits="userSpaceOnUse">
<stop stop-color="#9A031E"/>
<stop offset="1" stop-color="#E36414"/>
</linearGradient>
</defs>
</svg>
