<svg width="50" height="50" viewBox="0 0 50 50" fill="none" xmlns="http://www.w3.org/2000/svg">
<circle cx="25" cy="25" r="25" fill="#112A7F"/>
<path d="M25.2745 19.9826C23.8707 19.9826 22.5244 20.5403 21.5317 21.5329C20.5391 22.5255 19.9814 23.8718 19.9814 25.2756C19.9814 26.6794 20.5391 28.0258 21.5317 29.0184C22.5244 30.011 23.8707 30.5687 25.2745 30.5687C26.6783 30.5687 28.0246 30.011 29.0172 29.0184C30.0099 28.0258 30.5675 26.6794 30.5675 25.2756C30.5675 23.8718 30.0099 22.5255 29.0172 21.5329C28.0246 20.5403 26.6783 19.9826 25.2745 19.9826ZM25.2745 28.7131C24.3625 28.7131 23.4879 28.3509 22.843 27.706C22.1981 27.0611 21.8358 26.1865 21.8358 25.2745C21.8358 24.3625 22.1981 23.4879 22.843 22.843C23.4879 22.1981 24.3625 21.8359 25.2745 21.8359C26.1865 21.8359 27.0611 22.1981 27.706 22.843C28.3508 23.4879 28.7131 24.3625 28.7131 25.2745C28.7131 26.1865 28.3508 27.0611 27.706 27.706C27.0611 28.3509 26.1865 28.7131 25.2745 28.7131Z" fill="white"/>
<path d="M30.7769 21.022C31.4584 21.022 32.0109 20.4696 32.0109 19.7881C32.0109 19.1065 31.4584 18.5541 30.7769 18.5541C30.0954 18.5541 29.543 19.1065 29.543 19.7881C29.543 20.4696 30.0954 21.022 30.7769 21.022Z" fill="white"/>
<path d="M35.0431 18.5347C34.7781 17.8503 34.3732 17.2289 33.8542 16.7101C33.3352 16.1913 32.7136 15.7866 32.0292 15.5218C31.2283 15.2212 30.3822 15.0586 29.5269 15.0411C28.4245 14.993 28.0754 14.9792 25.2801 14.9792C22.4847 14.9792 22.1265 14.9792 21.0333 15.0411C20.1786 15.0577 19.3331 15.2203 18.5333 15.5218C17.8487 15.7863 17.2269 16.1909 16.7079 16.7097C16.1888 17.2285 15.784 17.8502 15.5193 18.5347C15.2186 19.3355 15.0564 20.1817 15.0397 21.0369C14.9905 22.1381 14.9756 22.4873 14.9756 25.2837C14.9756 28.0791 14.9756 28.4351 15.0397 29.5305C15.0569 30.3868 15.2183 31.2315 15.5193 32.034C15.7847 32.7182 16.19 33.3396 16.7091 33.8583C17.2283 34.3771 17.85 34.7819 18.5344 35.0468C19.3328 35.3595 20.1786 35.5337 21.0356 35.5619C22.1379 35.61 22.487 35.6249 25.2824 35.6249C28.0777 35.6249 28.436 35.6249 29.5292 35.5619C30.3844 35.5445 31.2304 35.3823 32.0315 35.0823C32.7157 34.8169 33.3371 34.4118 33.8561 33.8929C34.375 33.374 34.7801 32.7525 35.0454 32.0683C35.3465 31.267 35.5079 30.4222 35.525 29.566C35.5743 28.4648 35.5891 28.1157 35.5891 25.3192C35.5891 22.5227 35.5891 22.1679 35.525 21.0724C35.5117 20.2051 35.3487 19.3465 35.0431 18.5347ZM33.6489 29.4458C33.6415 30.1055 33.5211 30.7591 33.2929 31.3781C33.121 31.8232 32.8578 32.2274 32.5203 32.5647C32.1828 32.902 31.7784 33.165 31.3332 33.3366C30.721 33.5638 30.0744 33.6842 29.4216 33.6926C28.3341 33.743 28.0273 33.7556 25.2389 33.7556C22.4481 33.7556 22.1631 33.7556 21.055 33.6926C20.4025 33.6846 19.7562 33.5642 19.1445 33.3366C18.6978 33.166 18.2918 32.9036 17.9528 32.5662C17.6138 32.2288 17.3495 31.824 17.1768 31.3781C16.9518 30.7657 16.8315 30.1199 16.8208 29.4676C16.7716 28.3801 16.7602 28.0733 16.7602 25.2849C16.7602 22.4953 16.7602 22.2102 16.8208 21.101C16.8282 20.4417 16.9486 19.7886 17.1768 19.17C17.526 18.2668 18.2414 17.5559 19.1445 17.2102C19.7565 16.9838 20.4026 16.8634 21.055 16.8542C22.1436 16.805 22.4493 16.7913 25.2389 16.7913C28.0285 16.7913 28.3146 16.7913 29.4216 16.8542C30.0745 16.8621 30.7212 16.9825 31.3332 17.2102C31.7784 17.3823 32.1827 17.6455 32.5202 17.9829C32.8577 18.3204 33.1209 18.7248 33.2929 19.17C33.5179 19.7823 33.6382 20.4281 33.6489 21.0804C33.6981 22.169 33.7107 22.4747 33.7107 25.2643C33.7107 28.0527 33.7107 28.3526 33.6615 29.447H33.6489V29.4458Z" fill="white"/>
</svg>
