<svg width="113" height="126" viewBox="0 0 113 126" fill="none" xmlns="http://www.w3.org/2000/svg">
<rect width="113" height="126" rx="15" fill="url(#paint0_linear_715_1803)"/>
<path d="M27.3117 90.8764C27.2272 91.0244 27.1355 91.1337 27.0369 91.2041C26.9453 91.2676 26.829 91.2993 26.688 91.2993C26.54 91.2993 26.3779 91.2464 26.2017 91.1407C26.0326 91.0279 25.8282 90.9046 25.5885 90.7707C25.3489 90.6368 25.067 90.517 24.7428 90.4112C24.4257 90.2985 24.0486 90.2421 23.6116 90.2421C23.2169 90.2421 22.8716 90.2914 22.5756 90.3901C22.2796 90.4817 22.0294 90.6121 21.825 90.7813C21.6277 90.9504 21.4797 91.1548 21.381 91.3944C21.2823 91.627 21.233 91.8842 21.233 92.1662C21.233 92.5256 21.3316 92.8251 21.529 93.0648C21.7334 93.3044 22.0012 93.5088 22.3324 93.6779C22.6637 93.8471 23.0407 93.9986 23.4636 94.1325C23.8865 94.2664 24.3199 94.4109 24.7639 94.566C25.208 94.714 25.6414 94.8902 26.0643 95.0945C26.4871 95.2919 26.8642 95.5456 27.1955 95.8557C27.5267 96.1588 27.791 96.5323 27.9883 96.9763C28.1927 97.4203 28.2949 97.9595 28.2949 98.5938C28.2949 99.2845 28.1751 99.9329 27.9355 100.539C27.7029 101.138 27.3576 101.663 26.8994 102.114C26.4484 102.558 25.8951 102.911 25.2397 103.171C24.5842 103.425 23.8336 103.552 22.9879 103.552C22.5016 103.552 22.0223 103.503 21.5501 103.404C21.0779 103.312 20.6233 103.178 20.1864 103.002C19.7565 102.826 19.3512 102.615 18.9706 102.368C18.59 102.121 18.2517 101.846 17.9557 101.543L18.7909 100.18C18.8614 100.081 18.953 99.9998 19.0658 99.9364C19.1785 99.8659 19.2983 99.8307 19.4252 99.8307C19.6014 99.8307 19.7917 99.9047 19.9961 100.053C20.2005 100.194 20.4436 100.352 20.7255 100.528C21.0074 100.705 21.3352 100.867 21.7087 101.015C22.0893 101.156 22.5439 101.226 23.0725 101.226C23.883 101.226 24.5102 101.036 24.9542 100.655C25.3983 100.268 25.6203 99.7144 25.6203 98.9955C25.6203 98.5938 25.5181 98.2661 25.3137 98.0124C25.1163 97.7586 24.852 97.5472 24.5208 97.378C24.1895 97.2019 23.8125 97.0538 23.3896 96.934C22.9667 96.8142 22.5368 96.6838 22.0999 96.5429C21.6629 96.4019 21.233 96.2328 20.8101 96.0354C20.3872 95.8381 20.0102 95.5808 19.6789 95.2637C19.3477 94.9465 19.0799 94.5519 18.8755 94.0797C18.6781 93.6004 18.5795 93.0119 18.5795 92.3142C18.5795 91.7574 18.6887 91.2147 18.9072 90.6861C19.1327 90.1575 19.4569 89.6888 19.8798 89.2801C20.3027 88.8713 20.8242 88.5436 21.4444 88.2969C22.0646 88.0502 22.7765 87.9269 23.5799 87.9269C24.482 87.9269 25.3137 88.0678 26.0748 88.3498C26.836 88.6317 27.4844 89.0263 28.0201 89.5338L27.3117 90.8764ZM32.83 93.6991C33.2529 93.3044 33.7181 92.9837 34.2255 92.737C34.733 92.4904 35.3285 92.367 36.0121 92.367C36.6042 92.367 37.1292 92.4692 37.5873 92.6736C38.0454 92.8709 38.426 93.1529 38.7291 93.5194C39.0392 93.8788 39.2718 94.3122 39.4268 94.8197C39.5889 95.3201 39.67 95.8733 39.67 96.4794V103.383H37.0588V96.4794C37.0588 95.8169 36.9072 95.306 36.6042 94.9465C36.3011 94.5801 35.8395 94.3968 35.2193 94.3968C34.7682 94.3968 34.3453 94.499 33.9507 94.7034C33.556 94.9078 33.1824 95.1862 32.83 95.5386V103.383H30.2188V87.6732H32.83V93.6991ZM46.9529 92.367C47.7564 92.367 48.4858 92.4974 49.1413 92.7582C49.8038 93.019 50.3676 93.389 50.8328 93.8682C51.305 94.3475 51.6679 94.9324 51.9217 95.6231C52.1754 96.3138 52.3023 97.0856 52.3023 97.9384C52.3023 98.7982 52.1754 99.5735 51.9217 100.264C51.6679 100.955 51.305 101.543 50.8328 102.03C50.3676 102.516 49.8038 102.889 49.1413 103.15C48.4858 103.411 47.7564 103.541 46.9529 103.541C46.1424 103.541 45.4059 103.411 44.7434 103.15C44.0809 102.889 43.5136 102.516 43.0414 102.03C42.5762 101.543 42.2133 100.955 41.9525 100.264C41.6988 99.5735 41.5719 98.7982 41.5719 97.9384C41.5719 97.0856 41.6988 96.3138 41.9525 95.6231C42.2133 94.9324 42.5762 94.3475 43.0414 93.8682C43.5136 93.389 44.0809 93.019 44.7434 92.7582C45.4059 92.4974 46.1424 92.367 46.9529 92.367ZM46.9529 101.533C47.8551 101.533 48.5211 101.23 48.951 100.624C49.388 100.017 49.6065 99.1294 49.6065 97.9595C49.6065 96.7896 49.388 95.898 48.951 95.2848C48.5211 94.6717 47.8551 94.3651 46.9529 94.3651C46.0367 94.3651 45.3566 94.6752 44.9126 95.2954C44.4756 95.9086 44.2571 96.7966 44.2571 97.9595C44.2571 99.1224 44.4756 100.01 44.9126 100.624C45.3566 101.23 46.0367 101.533 46.9529 101.533ZM56.7576 94.418C57.0959 93.7695 57.4976 93.2621 57.9628 92.8956C58.4279 92.5221 58.9777 92.3353 59.612 92.3353C60.1124 92.3353 60.5141 92.4446 60.8172 92.663L60.648 94.6188C60.6128 94.7457 60.5599 94.8373 60.4894 94.8937C60.426 94.943 60.3379 94.9677 60.2251 94.9677C60.1194 94.9677 59.9608 94.9501 59.7494 94.9148C59.545 94.8796 59.3442 94.862 59.1468 94.862C58.8579 94.862 58.6006 94.9043 58.3751 94.9888C58.1495 95.0734 57.9452 95.1967 57.7619 95.3588C57.5857 95.5139 57.4271 95.7042 57.2862 95.9297C57.1523 96.1552 57.0254 96.4125 56.9056 96.7015V103.383H54.2944V92.5362H55.8273C56.0951 92.5362 56.2819 92.5855 56.3876 92.6842C56.4933 92.7758 56.5638 92.945 56.599 93.1916L56.7576 94.418ZM65.7974 103.552C64.853 103.552 64.1271 103.288 63.6197 102.759C63.1193 102.223 62.8691 101.487 62.8691 100.55V94.492H61.759C61.6181 94.492 61.4983 94.4461 61.3996 94.3545C61.3009 94.2629 61.2516 94.1255 61.2516 93.9422V92.9062L62.9959 92.6207L63.5457 89.6607C63.5809 89.5197 63.6479 89.4105 63.7465 89.3329C63.8452 89.2554 63.9721 89.2166 64.1271 89.2166H65.4803V92.6313H68.377V94.492H65.4803V100.37C65.4803 100.708 65.5613 100.972 65.7234 101.163C65.8926 101.353 66.1216 101.448 66.4106 101.448C66.5727 101.448 66.7066 101.431 66.8123 101.395C66.9251 101.353 67.0203 101.311 67.0978 101.268C67.1824 101.226 67.2564 101.187 67.3198 101.152C67.3832 101.11 67.4466 101.089 67.5101 101.089C67.5876 101.089 67.651 101.11 67.7004 101.152C67.7497 101.187 67.8026 101.244 67.8589 101.321L68.6413 102.59C68.2607 102.907 67.8237 103.147 67.3304 103.309C66.837 103.471 66.326 103.552 65.7974 103.552ZM72.6917 87.6732V103.383H70.0805V87.6732H72.6917ZM77.9997 92.5362V103.383H75.378V92.5362H77.9997ZM78.3592 89.3752C78.3592 89.6007 78.3134 89.8122 78.2218 90.0095C78.1301 90.2069 78.0068 90.3795 77.8517 90.5275C77.7037 90.6755 77.5275 90.7954 77.3232 90.887C77.1188 90.9716 76.9003 91.0138 76.6677 91.0138C76.4422 91.0138 76.2272 90.9716 76.0228 90.887C75.8255 90.7954 75.6528 90.6755 75.5048 90.5275C75.3568 90.3795 75.237 90.2069 75.1454 90.0095C75.0608 89.8122 75.0185 89.6007 75.0185 89.3752C75.0185 89.1426 75.0608 88.9242 75.1454 88.7198C75.237 88.5154 75.3568 88.3392 75.5048 88.1912C75.6528 88.0432 75.8255 87.9269 76.0228 87.8423C76.2272 87.7507 76.4422 87.7049 76.6677 87.7049C76.9003 87.7049 77.1188 87.7507 77.3232 87.8423C77.5275 87.9269 77.7037 88.0432 77.8517 88.1912C78.0068 88.3392 78.1301 88.5154 78.2218 88.7198C78.3134 88.9242 78.3592 89.1426 78.3592 89.3752ZM87.2798 94.6505C87.2093 94.7633 87.1353 94.8443 87.0578 94.8937C86.9802 94.936 86.8816 94.9571 86.7618 94.9571C86.6349 94.9571 86.4975 94.9219 86.3495 94.8514C86.2085 94.7809 86.0429 94.7034 85.8526 94.6188C85.6623 94.5272 85.4438 94.4461 85.1971 94.3757C84.9575 94.3052 84.6721 94.2699 84.3408 94.2699C83.8263 94.2699 83.4211 94.3792 83.1251 94.5977C82.8361 94.8162 82.6916 95.1016 82.6916 95.454C82.6916 95.6866 82.7656 95.8839 82.9136 96.046C83.0687 96.2011 83.2696 96.3385 83.5162 96.4583C83.77 96.5781 84.0554 96.6874 84.3725 96.786C84.6897 96.8776 85.0104 96.9798 85.3346 97.0926C85.6658 97.2054 85.99 97.3358 86.3072 97.4838C86.6243 97.6247 86.9062 97.808 87.1529 98.0335C87.4066 98.252 87.6075 98.5163 87.7555 98.8264C87.9106 99.1365 87.9881 99.51 87.9881 99.947C87.9881 100.469 87.8929 100.951 87.7027 101.395C87.5194 101.832 87.2445 102.213 86.8781 102.537C86.5116 102.854 86.057 103.104 85.5143 103.288C84.9787 103.464 84.3584 103.552 83.6537 103.552C83.2801 103.552 82.9136 103.517 82.5542 103.446C82.2018 103.383 81.86 103.291 81.5287 103.171C81.2045 103.052 80.9015 102.911 80.6196 102.749C80.3447 102.586 80.1015 102.41 79.8901 102.22L80.4927 101.226C80.5702 101.106 80.6619 101.015 80.7676 100.951C80.8733 100.888 81.0072 100.856 81.1693 100.856C81.3314 100.856 81.4829 100.902 81.6239 100.994C81.7719 101.085 81.941 101.184 82.1313 101.29C82.3216 101.395 82.5436 101.494 82.7974 101.586C83.0581 101.677 83.3858 101.723 83.7805 101.723C84.0906 101.723 84.3549 101.688 84.5734 101.617C84.7989 101.54 84.9822 101.441 85.1231 101.321C85.2711 101.202 85.3769 101.064 85.4403 100.909C85.5108 100.747 85.546 100.581 85.546 100.412C85.546 100.158 85.4685 99.9505 85.3134 99.7884C85.1654 99.6263 84.9646 99.4854 84.7108 99.3655C84.4642 99.2457 84.1787 99.14 83.8545 99.0484C83.5374 98.9497 83.2096 98.844 82.8714 98.7312C82.5401 98.6185 82.2124 98.4881 81.8882 98.3401C81.571 98.185 81.2856 97.9912 81.0319 97.7586C80.7852 97.5261 80.5843 97.2406 80.4293 96.9023C80.2813 96.564 80.2073 96.1552 80.2073 95.676C80.2073 95.232 80.2954 94.8091 80.4716 94.4074C80.6478 94.0057 80.905 93.6568 81.2433 93.3608C81.5886 93.0577 82.015 92.8181 82.5225 92.6419C83.037 92.4586 83.629 92.367 84.2985 92.367C85.0456 92.367 85.7257 92.4904 86.3389 92.737C86.9521 92.9837 87.463 93.3079 87.8718 93.7096L87.2798 94.6505ZM93.569 103.552C92.6246 103.552 91.8987 103.288 91.3912 102.759C90.8908 102.223 90.6406 101.487 90.6406 100.55V94.492H89.5306C89.3896 94.492 89.2698 94.4461 89.1711 94.3545C89.0725 94.2629 89.0231 94.1255 89.0231 93.9422V92.9062L90.7675 92.6207L91.3172 89.6607C91.3525 89.5197 91.4194 89.4105 91.5181 89.3329C91.6167 89.2554 91.7436 89.2166 91.8987 89.2166H93.2518V92.6313H96.1485V94.492H93.2518V100.37C93.2518 100.708 93.3329 100.972 93.495 101.163C93.6641 101.353 93.8932 101.448 94.1822 101.448C94.3443 101.448 94.4782 101.431 94.5839 101.395C94.6967 101.353 94.7918 101.311 94.8693 101.268C94.9539 101.226 95.0279 101.187 95.0913 101.152C95.1548 101.11 95.2182 101.089 95.2816 101.089C95.3592 101.089 95.4226 101.11 95.4719 101.152C95.5213 101.187 95.5741 101.244 95.6305 101.321L96.4128 102.59C96.0322 102.907 95.5953 103.147 95.1019 103.309C94.6086 103.471 94.0976 103.552 93.569 103.552Z" fill="white"/>
<path fill-rule="evenodd" clip-rule="evenodd" d="M61.3311 22.7012C61.432 22.7012 61.5309 22.7097 61.6272 22.726L61.9487 22.728C62.4279 22.728 62.8861 22.9229 63.2197 23.2683L75.1188 35.6655C75.4336 35.992 75.6101 36.4313 75.6101 36.8847V58.4182C75.6521 64.3126 71.0616 69.1286 65.1578 69.3683L46.3189 69.3706H46.0628C40.3072 69.2405 35.6911 64.5856 35.5505 58.8862L35.5498 33.2504C35.6861 27.4218 40.4997 22.728 46.286 22.728L61.035 22.726C61.1312 22.7097 61.2302 22.7012 61.3311 22.7012ZM59.5689 26.2509L46.2907 26.2519C42.398 26.2519 39.1654 29.4046 39.0737 33.2927V58.4182C38.9868 62.4426 42.1583 65.7574 46.1427 65.8467H65.0873C69.0083 65.6846 72.114 62.4261 72.086 58.4323L72.0858 39.1062L67.364 39.1086C63.0648 39.0968 59.5691 35.5917 59.5691 31.2972L59.5689 26.2509ZM60.8922 52.3212C61.8648 52.3212 62.6542 53.1105 62.6542 54.0831C62.6542 55.0557 61.8648 55.8451 60.8922 55.8451H48.2061C47.2335 55.8451 46.4441 55.0557 46.4441 54.0831C46.4441 53.1105 47.2335 52.3212 48.2061 52.3212H60.8922ZM56.0882 43.5066C57.0608 43.5066 57.8501 44.296 57.8501 45.2686C57.8501 46.2412 57.0608 47.0306 56.0882 47.0306H48.204C47.2314 47.0306 46.442 46.2412 46.442 45.2686C46.442 44.296 47.2314 43.5066 48.204 43.5066H56.0882ZM63.0928 28.2267L63.093 31.2972C63.093 33.6559 65.0124 35.5776 67.3687 35.5846L70.1547 35.5823L63.0928 28.2267Z" fill="white"/>
<defs>
<linearGradient id="paint0_linear_715_1803" x1="5.15671e-07" y1="64" x2="112.759" y2="64" gradientUnits="userSpaceOnUse">
<stop stop-color="#9A031E"/>
<stop offset="1" stop-color="#E36414"/>
</linearGradient>
</defs>
</svg>
