<svg width="50" height="50" viewBox="0 0 50 50" fill="none" xmlns="http://www.w3.org/2000/svg">
<circle cx="25" cy="25" r="25" fill="#112A7F"/>
<path d="M32.9826 17.159C31.9445 16.0989 30.7081 15.2584 29.3454 14.6865C27.9827 14.1146 26.521 13.8228 25.0455 13.8279C18.8635 13.8279 13.825 18.9218 13.825 25.1718C13.825 27.175 14.3458 29.121 15.3195 30.838L13.7344 36.7217L19.6787 35.1421C21.3204 36.0464 23.166 36.5271 25.0455 36.5271C31.2276 36.5271 36.2661 31.4333 36.2661 25.1833C36.2661 22.1498 35.0999 19.2996 32.9826 17.159ZM25.0455 34.604C23.3698 34.604 21.728 34.1462 20.2901 33.2877L19.9504 33.0816L16.4178 34.0203L17.3576 30.5404L17.1311 30.1856C16.2001 28.6825 15.7058 26.9452 15.7045 25.1718C15.7045 19.9749 19.8938 15.7396 25.0342 15.7396C27.5251 15.7396 29.8689 16.724 31.6239 18.5097C32.4928 19.3842 33.1815 20.4244 33.6499 21.57C34.1183 22.7155 34.3571 23.9437 34.3526 25.1833C34.3752 30.3801 30.1859 34.604 25.0455 34.604ZM30.1633 27.5528C29.8802 27.4154 28.4989 26.7286 28.2498 26.6256C27.9894 26.534 27.8082 26.4882 27.6157 26.7629C27.4232 27.0491 26.8911 27.6901 26.7326 27.8733C26.574 28.0679 26.4042 28.0908 26.1212 27.942C25.8381 27.8046 24.9323 27.4955 23.868 26.534C23.0301 25.7785 22.4753 24.8513 22.3055 24.5651C22.147 24.279 22.2828 24.1301 22.43 23.9813C22.5546 23.8554 22.7131 23.6494 22.849 23.4891C22.9848 23.3289 23.0414 23.2029 23.132 23.0198C23.2226 22.8252 23.1773 22.6649 23.1094 22.5276C23.0414 22.3902 22.4753 20.9937 22.2489 20.4214C22.0224 19.8719 21.7846 19.9406 21.6148 19.9291H21.0713C20.8788 19.9291 20.5845 19.9978 20.324 20.284C20.075 20.5702 19.3503 21.257 19.3503 22.6535C19.3503 24.05 20.358 25.4008 20.4939 25.5839C20.6298 25.7785 22.4753 28.6402 25.2833 29.865C25.9513 30.1627 26.4721 30.3344 26.8798 30.4603C27.5478 30.6778 28.1592 30.6434 28.6461 30.5747C29.1895 30.4946 30.3105 29.8879 30.5369 29.224C30.7747 28.5601 30.7747 27.9992 30.6954 27.8733C30.6162 27.7474 30.4463 27.6901 30.1633 27.5528Z" fill="white"/>
</svg>
