<svg width="113" height="126" viewBox="0 0 113 126" fill="none" xmlns="http://www.w3.org/2000/svg">
<rect width="113" height="126" rx="15" fill="url(#paint0_linear_759_101)"/>
<path d="M36.6378 93.3566C36.6378 94.4772 36.451 95.5062 36.0775 96.4436C35.7039 97.3809 35.1789 98.1879 34.5023 98.8645C33.8257 99.5411 33.0117 100.066 32.0602 100.44C31.1087 100.813 30.0516 101 28.8887 101H23.0636V85.7132H28.8887C30.0516 85.7132 31.1087 85.9035 32.0602 86.2841C33.0117 86.6576 33.8257 87.1827 34.5023 87.8593C35.1789 88.5288 35.7039 89.3323 36.0775 90.2697C36.451 91.207 36.6378 92.236 36.6378 93.3566ZM33.72 93.3566C33.72 92.5179 33.6072 91.7673 33.3817 91.1048C33.1632 90.4353 32.8425 89.8714 32.4196 89.4133C32.0038 88.9482 31.4964 88.5923 30.8973 88.3456C30.3053 88.0989 29.6357 87.9756 28.8887 87.9756H25.918V98.7376H28.8887C29.6357 98.7376 30.3053 98.6143 30.8973 98.3676C31.4964 98.121 32.0038 97.7686 32.4196 97.3105C32.8425 96.8453 33.1632 96.2815 33.3817 95.619C33.6072 94.9494 33.72 94.1953 33.72 93.3566ZM45.5795 94.3292C45.5795 93.9909 45.5302 93.6738 45.4315 93.3778C45.3399 93.0747 45.1989 92.8104 45.0086 92.5849C44.8183 92.3593 44.5752 92.1831 44.2792 92.0563C43.9902 91.9224 43.6519 91.8554 43.2643 91.8554C42.5102 91.8554 41.9146 92.0704 41.4777 92.5003C41.0477 92.9302 40.7729 93.5399 40.6531 94.3292H45.5795ZM40.6002 95.9044C40.6425 96.4612 40.7412 96.944 40.8962 97.3527C41.0513 97.7545 41.2557 98.0892 41.5094 98.3571C41.7631 98.6178 42.0626 98.8152 42.408 98.9491C42.7604 99.0759 43.148 99.1394 43.5709 99.1394C43.9937 99.1394 44.3567 99.09 44.6598 98.9914C44.9699 98.8927 45.2377 98.7835 45.4632 98.6636C45.6958 98.5438 45.8967 98.4346 46.0658 98.3359C46.242 98.2372 46.4112 98.1879 46.5733 98.1879C46.7917 98.1879 46.9538 98.269 47.0596 98.4311L47.8102 99.3825C47.5212 99.7208 47.197 100.006 46.8376 100.239C46.4781 100.464 46.1011 100.648 45.7064 100.789C45.3187 100.922 44.9205 101.018 44.5118 101.074C44.11 101.13 43.7189 101.159 43.3383 101.159C42.5842 101.159 41.8829 101.035 41.2345 100.789C40.5861 100.535 40.0223 100.165 39.543 99.6785C39.0638 99.1852 38.6867 98.5791 38.4119 97.8602C38.137 97.1343 37.9996 96.2956 37.9996 95.3441C37.9996 94.6041 38.1194 93.9099 38.359 93.2615C38.5986 92.606 38.9404 92.0387 39.3845 91.5594C39.8355 91.0731 40.3817 90.689 41.0231 90.4071C41.6715 90.1252 42.4009 89.9842 43.2114 89.9842C43.8951 89.9842 44.5259 90.0935 45.1038 90.3119C45.6817 90.5304 46.1786 90.8511 46.5944 91.274C47.0102 91.6898 47.3344 92.2043 47.567 92.8174C47.8066 93.4236 47.9264 94.1178 47.9264 94.9001C47.9264 95.2948 47.8842 95.5626 47.7996 95.7035C47.715 95.8375 47.5529 95.9044 47.3133 95.9044H40.6002ZM57.6563 92.4474C57.5787 92.5461 57.5012 92.6236 57.4237 92.68C57.3532 92.7364 57.2475 92.7646 57.1065 92.7646C56.9726 92.7646 56.8422 92.7258 56.7154 92.6483C56.5885 92.5637 56.437 92.4721 56.2608 92.3734C56.0846 92.2677 55.8732 92.1761 55.6265 92.0986C55.3869 92.014 55.0873 91.9717 54.7279 91.9717C54.2698 91.9717 53.8681 92.0563 53.5227 92.2254C53.1774 92.3875 52.8884 92.6236 52.6558 92.9337C52.4303 93.2438 52.2611 93.6209 52.1484 94.0649C52.0356 94.5019 51.9792 94.9988 51.9792 95.5555C51.9792 96.1335 52.0391 96.648 52.159 97.099C52.2858 97.5501 52.4655 97.9307 52.6981 98.2408C52.9307 98.5438 53.2126 98.7764 53.5439 98.9385C53.8751 99.0936 54.2486 99.1711 54.6645 99.1711C55.0803 99.1711 55.4151 99.1217 55.6688 99.0231C55.9296 98.9174 56.148 98.8046 56.3242 98.6848C56.5004 98.5579 56.652 98.4452 56.7788 98.3465C56.9127 98.2408 57.0607 98.1879 57.2228 98.1879C57.4343 98.1879 57.5928 98.269 57.6986 98.4311L58.4492 99.3825C58.1602 99.7208 57.8466 100.006 57.5083 100.239C57.17 100.464 56.8176 100.648 56.4511 100.789C56.0917 100.922 55.7181 101.018 55.3305 101.074C54.9499 101.13 54.5693 101.159 54.1887 101.159C53.5192 101.159 52.8884 101.035 52.2964 100.789C51.7044 100.535 51.1864 100.168 50.7423 99.6891C50.2983 99.2098 49.9459 98.6249 49.6852 97.9342C49.4314 97.2364 49.3046 96.4436 49.3046 95.5555C49.3046 94.7591 49.4173 94.0226 49.6429 93.346C49.8755 92.6624 50.2137 92.0739 50.6578 91.5806C51.1018 91.0802 51.6515 90.689 52.307 90.4071C52.9624 90.1252 53.7165 89.9842 54.5693 89.9842C55.3798 89.9842 56.0881 90.1146 56.6942 90.3754C57.3074 90.6361 57.8571 91.0097 58.3434 91.496L57.6563 92.4474ZM62.7291 85.2903V101H60.1178V85.2903H62.7291ZM68.0371 90.1534V101H65.4153V90.1534H68.0371ZM68.3965 86.9924C68.3965 87.2179 68.3507 87.4294 68.2591 87.6267C68.1675 87.824 68.0441 87.9967 67.8891 88.1447C67.7411 88.2927 67.5649 88.4125 67.3605 88.5042C67.1561 88.5887 66.9376 88.631 66.705 88.631C66.4795 88.631 66.2646 88.5887 66.0602 88.5042C65.8628 88.4125 65.6902 88.2927 65.5422 88.1447C65.3941 87.9967 65.2743 87.824 65.1827 87.6267C65.0981 87.4294 65.0559 87.2179 65.0559 86.9924C65.0559 86.7598 65.0981 86.5413 65.1827 86.337C65.2743 86.1326 65.3941 85.9564 65.5422 85.8084C65.6902 85.6604 65.8628 85.5441 66.0602 85.4595C66.2646 85.3679 66.4795 85.3221 66.705 85.3221C66.9376 85.3221 67.1561 85.3679 67.3605 85.4595C67.5649 85.5441 67.7411 85.6604 67.8891 85.8084C68.0441 85.9564 68.1675 86.1326 68.2591 86.337C68.3507 86.5413 68.3965 86.7598 68.3965 86.9924ZM73.1413 91.4854C73.3598 91.2669 73.5888 91.0661 73.8284 90.8828C74.0751 90.6925 74.3324 90.5339 74.6002 90.4071C74.875 90.2732 75.1675 90.171 75.4776 90.1005C75.7877 90.023 76.126 89.9842 76.4925 89.9842C77.0845 89.9842 77.6096 90.0864 78.0677 90.2908C78.5258 90.4881 78.9064 90.77 79.2095 91.1365C79.5196 91.496 79.7522 91.9294 79.9072 92.4369C80.0693 92.9373 80.1504 93.4905 80.1504 94.0966V101H77.5391V94.0966C77.5391 93.4341 77.3876 92.9232 77.0845 92.5637C76.7815 92.1972 76.3199 92.014 75.6996 92.014C75.2486 92.014 74.8257 92.1162 74.431 92.3206C74.0364 92.525 73.6628 92.8034 73.3104 93.1557V101H70.6992V90.1534H72.2955C72.6338 90.1534 72.8558 90.3119 72.9616 90.6291L73.1413 91.4854ZM89.6217 94.3292C89.6217 93.9909 89.5723 93.6738 89.4737 93.3778C89.382 93.0747 89.2411 92.8104 89.0508 92.5849C88.8605 92.3593 88.6174 92.1831 88.3213 92.0563C88.0324 91.9224 87.6941 91.8554 87.3065 91.8554C86.5523 91.8554 85.9568 92.0704 85.5198 92.5003C85.0899 92.9302 84.815 93.5399 84.6952 94.3292H89.6217ZM84.6424 95.9044C84.6847 96.4612 84.7833 96.944 84.9384 97.3527C85.0934 97.7545 85.2978 98.0892 85.5515 98.3571C85.8053 98.6178 86.1048 98.8152 86.4501 98.9491C86.8025 99.0759 87.1902 99.1394 87.613 99.1394C88.0359 99.1394 88.3989 99.09 88.7019 98.9914C89.012 98.8927 89.2799 98.7835 89.5054 98.6636C89.738 98.5438 89.9388 98.4346 90.108 98.3359C90.2842 98.2372 90.4533 98.1879 90.6154 98.1879C90.8339 98.1879 90.996 98.269 91.1017 98.4311L91.8523 99.3825C91.5634 99.7208 91.2392 100.006 90.8797 100.239C90.5203 100.464 90.1432 100.648 89.7485 100.789C89.3609 100.922 88.9627 101.018 88.5539 101.074C88.1522 101.13 87.761 101.159 87.3805 101.159C86.6263 101.159 85.9251 101.035 85.2767 100.789C84.6283 100.535 84.0644 100.165 83.5852 99.6785C83.1059 99.1852 82.7289 98.5791 82.454 97.8602C82.1791 97.1343 82.0417 96.2956 82.0417 95.3441C82.0417 94.6041 82.1615 93.9099 82.4012 93.2615C82.6408 92.606 82.9826 92.0387 83.4266 91.5594C83.8777 91.0731 84.4239 90.689 85.0652 90.4071C85.7136 90.1252 86.4431 89.9842 87.2536 89.9842C87.9372 89.9842 88.568 90.0935 89.1459 90.3119C89.7239 90.5304 90.2207 90.8511 90.6366 91.274C91.0524 91.6898 91.3766 92.2043 91.6092 92.8174C91.8488 93.4236 91.9686 94.1178 91.9686 94.9001C91.9686 95.2948 91.9263 95.5626 91.8417 95.7035C91.7572 95.8375 91.5951 95.9044 91.3554 95.9044H84.6424Z" fill="white"/>
<path d="M73.667 32.4166H63.2503V30.3333C63.2503 29.2282 62.8113 28.1684 62.0299 27.387C61.2485 26.6056 60.1887 26.1666 59.0837 26.1666H40.3337C39.2286 26.1666 38.1688 26.6056 37.3874 27.387C36.606 28.1684 36.167 29.2282 36.167 30.3333V57.4166C36.167 58.5217 36.606 59.5815 37.3874 60.3629C38.1688 61.1443 39.2286 61.5833 40.3337 61.5833H50.7503V63.6666C50.7503 64.7717 51.1893 65.8315 51.9707 66.6129C52.7521 67.3943 53.8119 67.8333 54.917 67.8333H73.667C74.7721 67.8333 75.8319 67.3943 76.6133 66.6129C77.3947 65.8315 77.8337 64.7717 77.8337 63.6666V36.5833C77.8337 35.4782 77.3947 34.4184 76.6133 33.637C75.8319 32.8556 74.7721 32.4166 73.667 32.4166ZM40.3337 57.4166V30.3333H59.0837V32.4166H54.917C53.8119 32.4166 52.7521 32.8556 51.9707 33.637C51.1893 34.4184 50.7503 35.4782 50.7503 36.5833H44.5003C43.9478 36.5833 43.4179 36.8028 43.0272 37.1935C42.6365 37.5842 42.417 38.1141 42.417 38.6666C42.417 39.2192 42.6365 39.7491 43.0272 40.1398C43.4179 40.5305 43.9478 40.75 44.5003 40.75H50.7503V42.8333H44.5003C43.9478 42.8333 43.4179 43.0528 43.0272 43.4435C42.6365 43.8342 42.417 44.3641 42.417 44.9166C42.417 45.4692 42.6365 45.9991 43.0272 46.3898C43.4179 46.7805 43.9478 47 44.5003 47H50.7503V49.0833H44.5003C43.9478 49.0833 43.4179 49.3028 43.0272 49.6935C42.6365 50.0842 42.417 50.6141 42.417 51.1666C42.417 51.7192 42.6365 52.2491 43.0272 52.6398C43.4179 53.0305 43.9478 53.25 44.5003 53.25H50.7503V57.4166H40.3337ZM54.917 63.6666V36.5833H73.667V63.6666H54.917Z" fill="white"/>
<path d="M70.7089 39.0624C70.2606 38.744 69.7047 38.6157 69.1623 38.7054C68.6198 38.7952 68.1348 39.0958 67.813 39.5416L64.2922 44.4583L60.7714 39.5416C60.6242 39.2931 60.427 39.0779 60.1922 38.9097C59.9575 38.7415 59.6903 38.624 59.4077 38.5645C59.1251 38.5051 58.8332 38.505 58.5506 38.5644C58.268 38.6238 58.0008 38.7412 57.766 38.9094C57.5311 39.0775 57.3339 39.2926 57.1866 39.5411C57.0394 39.7895 56.9454 40.0658 56.9106 40.3525C56.8759 40.6392 56.9011 40.93 56.9847 41.2064C57.0684 41.4829 57.2085 41.7389 57.3964 41.9583L61.7297 48.0416L57.3964 54.1249C57.078 54.5732 56.9496 55.1291 57.0394 55.6716C57.1292 56.214 57.4297 56.699 57.8755 57.0208C58.2272 57.2754 58.6497 57.4138 59.0839 57.4166C59.4144 57.4151 59.7398 57.3349 60.0332 57.1828C60.3267 57.0306 60.5797 56.8108 60.7714 56.5416L64.2922 51.6249L67.813 56.5416C68.0047 56.8108 68.2578 57.0306 68.5512 57.1828C68.8446 57.3349 69.17 57.4151 69.5005 57.4166C69.9347 57.4138 70.3572 57.2754 70.7089 57.0208C71.1547 56.699 71.4553 56.214 71.545 55.6716C71.6348 55.1291 71.5065 54.5732 71.188 54.1249L66.8547 48.0416L71.188 41.9583C71.5065 41.51 71.6348 40.9541 71.545 40.4116C71.4553 39.8692 71.1547 39.3842 70.7089 39.0624Z" fill="white"/>
<defs>
<linearGradient id="paint0_linear_759_101" x1="5.15671e-07" y1="64" x2="112.759" y2="64" gradientUnits="userSpaceOnUse">
<stop stop-color="#9A031E"/>
<stop offset="1" stop-color="#E36414"/>
</linearGradient>
</defs>
</svg>
