<svg width="113" height="126" viewBox="0 0 113 126" fill="none" xmlns="http://www.w3.org/2000/svg">
<rect width="113" height="126" rx="15" fill="url(#paint0_linear_759_106)"/>
<path d="M41.0311 90.4936C40.9465 90.6416 40.8549 90.7508 40.7562 90.8213C40.6646 90.8848 40.5483 90.9165 40.4073 90.9165C40.2593 90.9165 40.0972 90.8636 39.921 90.7579C39.7519 90.6451 39.5475 90.5218 39.3079 90.3879C39.0682 90.254 38.7863 90.1342 38.4621 90.0284C38.145 89.9157 37.7679 89.8593 37.3309 89.8593C36.9363 89.8593 36.5909 89.9086 36.2949 90.0073C35.9989 90.0989 35.7487 90.2293 35.5443 90.3984C35.347 90.5676 35.199 90.772 35.1003 91.0116C35.0016 91.2442 34.9523 91.5014 34.9523 91.7834C34.9523 92.1428 35.051 92.4423 35.2483 92.682C35.4527 92.9216 35.7205 93.126 36.0518 93.2951C36.383 93.4643 36.7601 93.6158 37.1829 93.7497C37.6058 93.8836 38.0392 94.0281 38.4833 94.1831C38.9273 94.3311 39.3607 94.5073 39.7836 94.7117C40.2065 94.9091 40.5835 95.1628 40.9148 95.4729C41.246 95.776 41.5103 96.1495 41.7076 96.5935C41.912 97.0375 42.0142 97.5767 42.0142 98.211C42.0142 98.9017 41.8944 99.5501 41.6548 100.156C41.4222 100.755 41.0769 101.28 40.6188 101.731C40.1677 102.175 39.6144 102.528 38.959 102.789C38.3035 103.042 37.5529 103.169 36.7072 103.169C36.2209 103.169 35.7416 103.12 35.2694 103.021C34.7972 102.93 34.3426 102.796 33.9057 102.619C33.4758 102.443 33.0705 102.232 32.6899 101.985C32.3093 101.738 31.971 101.464 31.675 101.161L32.5102 99.7968C32.5807 99.6981 32.6723 99.617 32.7851 99.5536C32.8978 99.4831 33.0177 99.4479 33.1445 99.4479C33.3207 99.4479 33.511 99.5219 33.7154 99.6699C33.9198 99.8108 34.1629 99.9694 34.4448 100.146C34.7268 100.322 35.0545 100.484 35.428 100.632C35.8086 100.773 36.2632 100.843 36.7918 100.843C37.6023 100.843 38.2295 100.653 38.6735 100.272C39.1176 99.8849 39.3396 99.3316 39.3396 98.6127C39.3396 98.211 39.2374 97.8833 39.033 97.6295C38.8357 97.3758 38.5714 97.1644 38.2401 96.9952C37.9089 96.819 37.5318 96.671 37.1089 96.5512C36.6861 96.4314 36.2561 96.301 35.8192 96.1601C35.3822 96.0191 34.9523 95.85 34.5294 95.6526C34.1065 95.4553 33.7295 95.198 33.3982 94.8809C33.067 94.5637 32.7992 94.169 32.5948 93.6968C32.3974 93.2176 32.2988 92.6291 32.2988 91.9314C32.2988 91.3746 32.408 90.8319 32.6265 90.3033C32.852 89.7747 33.1762 89.306 33.5991 88.8973C34.022 88.4885 34.5435 88.1608 35.1637 87.9141C35.7839 87.6674 36.4958 87.5441 37.2992 87.5441C38.2013 87.5441 39.033 87.685 39.7942 87.9669C40.5553 88.2489 41.2037 88.6435 41.7394 89.151L41.0311 90.4936ZM46.5494 93.3163C46.9722 92.9216 47.4374 92.6009 47.9448 92.3542C48.4523 92.1076 49.0478 91.9842 49.7315 91.9842C50.3235 91.9842 50.8485 92.0864 51.3067 92.2908C51.7648 92.4881 52.1453 92.77 52.4484 93.1365C52.7585 93.496 52.9911 93.9294 53.1461 94.4369C53.3082 94.9373 53.3893 95.4905 53.3893 96.0966V103H50.7781V96.0966C50.7781 95.4341 50.6265 94.9232 50.3235 94.5637C50.0204 94.1972 49.5588 94.014 48.9386 94.014C48.4875 94.014 48.0646 94.1162 47.67 94.3206C47.2753 94.525 46.9017 94.8034 46.5494 95.1557V103H43.9381V87.2903H46.5494V93.3163ZM61.6026 98.3696C60.8484 98.4048 60.2141 98.4718 59.6996 98.5704C59.1852 98.662 58.7729 98.7819 58.4627 98.9299C58.1526 99.0779 57.9306 99.2505 57.7967 99.4479C57.6628 99.6452 57.5959 99.8602 57.5959 100.093C57.5959 100.551 57.7298 100.879 57.9976 101.076C58.2725 101.273 58.6284 101.372 59.0653 101.372C59.601 101.372 60.0626 101.277 60.4502 101.087C60.8449 100.889 61.229 100.593 61.6026 100.198V98.3696ZM55.6189 93.6651C56.8664 92.5234 58.3676 91.9525 60.1225 91.9525C60.7568 91.9525 61.3242 92.0582 61.8246 92.2697C62.325 92.474 62.7478 92.763 63.0932 93.1365C63.4385 93.503 63.6993 93.9435 63.8755 94.458C64.0587 94.9725 64.1504 95.5363 64.1504 96.1495V103H62.9663C62.7196 103 62.5294 102.965 62.3954 102.894C62.2615 102.817 62.1558 102.665 62.0783 102.44L61.8457 101.657C61.5708 101.904 61.303 102.123 61.0423 102.313C60.7815 102.496 60.5101 102.651 60.2282 102.778C59.9463 102.905 59.6433 103 59.3191 103.063C59.0019 103.134 58.6495 103.169 58.2619 103.169C57.8038 103.169 57.3809 103.109 56.9933 102.989C56.6056 102.863 56.2709 102.676 55.989 102.429C55.707 102.182 55.4886 101.876 55.3335 101.509C55.1785 101.143 55.1009 100.716 55.1009 100.23C55.1009 99.9553 55.1467 99.684 55.2384 99.4162C55.33 99.1413 55.478 98.8805 55.6824 98.6339C55.8938 98.3872 56.1652 98.1546 56.4964 97.9361C56.8276 97.7176 57.2329 97.5273 57.7122 97.3652C58.1985 97.2031 58.7623 97.0728 59.4036 96.9741C60.045 96.8684 60.778 96.8049 61.6026 96.7838V96.1495C61.6026 95.4236 61.4475 94.8879 61.1374 94.5426C60.8273 94.1902 60.3798 94.014 59.7948 94.014C59.3719 94.014 59.0195 94.0633 58.7376 94.162C58.4627 94.2607 58.2196 94.3734 58.0082 94.5003C57.7967 94.6201 57.6029 94.7294 57.4267 94.828C57.2576 94.9267 57.0673 94.976 56.8558 94.976C56.6726 94.976 56.5175 94.9302 56.3907 94.8386C56.2638 94.7399 56.1616 94.6272 56.0841 94.5003L55.6189 93.6651ZM69.0728 94.0351C69.4111 93.3867 69.8129 92.8793 70.278 92.5128C70.7432 92.1393 71.2929 91.9525 71.9272 91.9525C72.4276 91.9525 72.8293 92.0617 73.1324 92.2802L72.9633 94.236C72.928 94.3629 72.8752 94.4545 72.8047 94.5109C72.7412 94.5602 72.6531 94.5849 72.5404 94.5849C72.4347 94.5849 72.2761 94.5673 72.0647 94.532C71.8603 94.4968 71.6594 94.4792 71.4621 94.4792C71.1731 94.4792 70.9159 94.5214 70.6903 94.606C70.4648 94.6906 70.2604 94.8139 70.0772 94.976C69.901 95.1311 69.7424 95.3214 69.6014 95.5469C69.4675 95.7724 69.3407 96.0297 69.2208 96.3186V103H66.6096V92.1534H68.1425C68.4103 92.1534 68.5971 92.2027 68.7028 92.3014C68.8085 92.393 68.879 92.5621 68.9143 92.8088L69.0728 94.0351ZM81.1754 96.3292C81.1754 95.9909 81.126 95.6738 81.0274 95.3778C80.9357 95.0747 80.7948 94.8104 80.6045 94.5849C80.4142 94.3593 80.1711 94.1831 79.875 94.0563C79.5861 93.9224 79.2478 93.8554 78.8602 93.8554C78.106 93.8554 77.5105 94.0704 77.0735 94.5003C76.6436 94.9302 76.3687 95.5399 76.2489 96.3292H81.1754ZM76.1961 97.9044C76.2384 98.4612 76.337 98.944 76.4921 99.3527C76.6471 99.7545 76.8515 100.089 77.1052 100.357C77.359 100.618 77.6585 100.815 78.0038 100.949C78.3562 101.076 78.7439 101.139 79.1667 101.139C79.5896 101.139 79.9526 101.09 80.2556 100.991C80.5657 100.893 80.8336 100.783 81.0591 100.664C81.2917 100.544 81.4925 100.435 81.6617 100.336C81.8379 100.237 82.007 100.188 82.1691 100.188C82.3876 100.188 82.5497 100.269 82.6554 100.431L83.406 101.383C83.1171 101.721 82.7929 102.006 82.4334 102.239C82.074 102.464 81.6969 102.648 81.3022 102.789C80.9146 102.922 80.5164 103.018 80.1076 103.074C79.7059 103.13 79.3147 103.159 78.9342 103.159C78.18 103.159 77.4788 103.035 76.8304 102.789C76.182 102.535 75.6181 102.165 75.1389 101.679C74.6596 101.185 74.2826 100.579 74.0077 99.8602C73.7328 99.1343 73.5954 98.2956 73.5954 97.3441C73.5954 96.6041 73.7152 95.9099 73.9549 95.2615C74.1945 94.606 74.5363 94.0387 74.9803 93.5594C75.4314 93.0731 75.9776 92.689 76.6189 92.4071C77.2673 92.1252 77.9968 91.9842 78.8073 91.9842C79.4909 91.9842 80.1217 92.0935 80.6996 92.3119C81.2776 92.5304 81.7744 92.8511 82.1903 93.274C82.6061 93.6898 82.9303 94.2043 83.1629 94.8174C83.4025 95.4236 83.5223 96.1178 83.5223 96.9001C83.5223 97.2948 83.48 97.5626 83.3954 97.7035C83.3109 97.8375 83.1488 97.9044 82.9091 97.9044H76.1961Z" fill="white"/>
<path fill-rule="evenodd" clip-rule="evenodd" d="M61.2073 30.4444C61.2073 26.1488 64.7055 22.6666 69.0205 22.6666C73.3355 22.6666 76.8337 26.1488 76.8337 30.4444C76.8337 34.7399 73.3355 38.2222 69.0205 38.2222C66.8416 38.2222 64.8725 37.3339 63.4569 35.9047L52.641 43.2688C52.7408 43.7658 52.7933 44.2791 52.7933 44.8034C52.7933 45.8418 52.588 46.8344 52.216 47.7416L64.0757 55.5335C65.4218 54.4375 67.144 53.7777 69.0205 53.7777C73.3355 53.7777 76.8337 57.2599 76.8337 61.5556C76.8337 65.851 73.3355 69.3333 69.0205 69.3333C64.7055 69.3333 61.2073 65.851 61.2073 61.5556C61.2073 60.4305 61.4481 59.3595 61.881 58.3925L50.1172 50.6636C48.7449 51.8562 46.9474 52.5811 44.9801 52.5811C40.6651 52.5811 37.167 49.0989 37.167 44.8034C37.167 40.5078 40.6651 37.0256 44.9801 37.0256C47.4614 37.0256 49.6702 38.1769 51.1004 39.9687L61.5828 32.8316C61.3389 32.0783 61.2073 31.2757 61.2073 30.4444Z" fill="white"/>
<defs>
<linearGradient id="paint0_linear_759_106" x1="5.15671e-07" y1="64" x2="112.759" y2="64" gradientUnits="userSpaceOnUse">
<stop stop-color="#9A031E"/>
<stop offset="1" stop-color="#E36414"/>
</linearGradient>
</defs>
</svg>
