<svg width="50" height="50" viewBox="0 0 50 50" fill="none" xmlns="http://www.w3.org/2000/svg">
<g clip-path="url(#clip0_856_168)">
<path d="M22.7538 0.0976562C14.0527 0.9375 6.47455 6.14258 2.63666 13.916C1.07416 17.0801 0.331976 19.8242 0.0780696 23.418C-0.156305 26.6895 0.371038 30.4492 1.51362 33.5547C1.95307 34.7559 3.14448 37.207 3.76948 38.1836C5.80072 41.377 8.88666 44.4434 11.9628 46.3184C17.7636 49.8437 24.6972 50.8691 31.2597 49.1797C35.4492 48.1055 39.1796 46.0059 42.3535 42.9297C50.3515 35.2148 52.2656 23.3008 47.1191 13.4082C45.8984 11.0645 44.3456 9.00391 42.3535 7.06055C38.5937 3.4082 33.8671 1.06445 28.662 0.283203C27.1874 0.0585938 24.1503 -0.0292969 22.7538 0.0976562ZM34.3749 15.7324C36.1718 16.1426 37.7441 17.8223 38.0761 19.668C38.2226 20.459 38.2226 29.541 38.0761 30.332C37.7441 32.1777 36.1718 33.8574 34.3749 34.2676C33.7695 34.4043 16.2304 34.4043 15.6249 34.2676C13.8281 33.8574 12.2558 32.1777 11.9238 30.332C11.7773 29.541 11.7773 20.459 11.9238 19.668C12.2558 17.8418 13.8281 16.1426 15.5859 15.7324C16.1328 15.6055 33.8183 15.6055 34.3749 15.7324Z" fill="#112A7F"/>
<path d="M21.582 25V28.9941L22.6855 28.3594C23.2812 27.998 24.8047 27.1191 26.0547 26.3965C27.2949 25.6738 28.3203 25.0391 28.3203 25C28.3203 24.9609 27.2949 24.3262 26.0547 23.6035C24.8047 22.8809 23.2812 22.002 22.6855 21.6406L21.582 21.0059V25Z" fill="#112A7F"/>
</g>
<defs>
<clipPath id="clip0_856_168">
<rect width="50" height="50" fill="white"/>
</clipPath>
</defs>
</svg>
