<svg width="113" height="126" viewBox="0 0 113 126" fill="none" xmlns="http://www.w3.org/2000/svg">
<rect width="113" height="126" rx="15" fill="url(#paint0_linear_889_532)"/>
<path d="M30.7762 95.3694C31.3119 95.3694 31.777 95.3025 32.1717 95.1685C32.5734 95.0346 32.9012 94.8514 33.1549 94.6188C33.4157 94.3792 33.6095 94.0973 33.7363 93.7731C33.8632 93.4489 33.9266 93.093 33.9266 92.7053C33.9266 91.9301 33.6694 91.3345 33.1549 90.9187C32.6474 90.5029 31.8687 90.295 30.8185 90.295H29.0002V95.3694H30.7762ZM38.0919 103.383H35.523C35.0367 103.383 34.6843 103.193 34.4658 102.812L31.252 97.9172C31.1322 97.734 30.9982 97.6036 30.8502 97.5261C30.7093 97.4485 30.4978 97.4098 30.2159 97.4098H29.0002V103.383H26.1564V88.096H30.8185C31.8546 88.096 32.7426 88.2053 33.4826 88.4238C34.2297 88.6352 34.8393 88.9347 35.3115 89.3224C35.7908 89.71 36.1432 90.1751 36.3687 90.7178C36.5942 91.2535 36.707 91.8455 36.707 92.4939C36.707 93.0084 36.6295 93.4947 36.4744 93.9528C36.3264 94.4109 36.1079 94.8267 35.819 95.2003C35.5371 95.5738 35.1847 95.9015 34.7618 96.1834C34.346 96.4654 33.8702 96.6874 33.3346 96.8495C33.5179 96.9552 33.687 97.082 33.8421 97.23C33.9971 97.371 34.1381 97.5401 34.2649 97.7375L38.0919 103.383ZM45.6164 96.712C45.6164 96.3737 45.567 96.0566 45.4684 95.7606C45.3767 95.4575 45.2358 95.1932 45.0455 94.9677C44.8552 94.7422 44.612 94.566 44.316 94.4391C44.0271 94.3052 43.6888 94.2382 43.3011 94.2382C42.547 94.2382 41.9515 94.4532 41.5145 94.8831C41.0846 95.313 40.8097 95.9227 40.6899 96.712H45.6164ZM40.6371 98.2872C40.6793 98.844 40.778 99.3268 40.9331 99.7356C41.0881 100.137 41.2925 100.472 41.5462 100.74C41.8 101.001 42.0995 101.198 42.4448 101.332C42.7972 101.459 43.1849 101.522 43.6077 101.522C44.0306 101.522 44.3936 101.473 44.6966 101.374C45.0067 101.276 45.2745 101.166 45.5001 101.046C45.7327 100.927 45.9335 100.817 46.1027 100.719C46.2789 100.62 46.448 100.571 46.6101 100.571C46.8286 100.571 46.9907 100.652 47.0964 100.814L47.847 101.765C47.558 102.104 47.2338 102.389 46.8744 102.622C46.515 102.847 46.1379 103.03 45.7432 103.171C45.3556 103.305 44.9574 103.4 44.5486 103.457C44.1469 103.513 43.7557 103.541 43.3751 103.541C42.621 103.541 41.9198 103.418 41.2714 103.171C40.623 102.918 40.0591 102.548 39.5799 102.061C39.1006 101.568 38.7236 100.962 38.4487 100.243C38.1738 99.5171 38.0364 98.6784 38.0364 97.7269C38.0364 96.9869 38.1562 96.2927 38.3958 95.6443C38.6355 94.9888 38.9773 94.4215 39.4213 93.9422C39.8724 93.4559 40.4186 93.0718 41.0599 92.7899C41.7083 92.508 42.4378 92.367 43.2483 92.367C43.9319 92.367 44.5627 92.4763 45.1406 92.6948C45.7186 92.9132 46.2154 93.2339 46.6313 93.6568C47.0471 94.0726 47.3713 94.5871 47.6039 95.2003C47.8435 95.8064 47.9633 96.5006 47.9633 97.2829C47.9633 97.6776 47.921 97.9454 47.8364 98.0864C47.7519 98.2203 47.5898 98.2872 47.3501 98.2872H40.6371ZM52.5341 100.571C52.8301 100.93 53.1508 101.184 53.4961 101.332C53.8485 101.48 54.2291 101.554 54.6379 101.554C55.0326 101.554 55.3885 101.48 55.7056 101.332C56.0228 101.184 56.2906 100.958 56.5091 100.655C56.7346 100.352 56.9073 99.9717 57.0271 99.5135C57.1469 99.0484 57.2068 98.5022 57.2068 97.8749C57.2068 97.2406 57.154 96.705 57.0482 96.268C56.9496 95.824 56.8051 95.4646 56.6148 95.1897C56.4245 94.9148 56.1919 94.714 55.9171 94.5871C55.6492 94.4602 55.3427 94.3968 54.9973 94.3968C54.4546 94.3968 53.993 94.5131 53.6124 94.7457C53.2318 94.9712 52.8724 95.2919 52.5341 95.7077V100.571ZM52.3967 94.0162C52.8407 93.5158 53.3446 93.1106 53.9084 92.8005C54.4723 92.4904 55.1348 92.3353 55.8959 92.3353C56.4879 92.3353 57.0271 92.4586 57.5134 92.7053C58.0068 92.952 58.4296 93.3114 58.782 93.7836C59.1415 94.2488 59.4163 94.8267 59.6066 95.5174C59.804 96.2011 59.9026 96.9869 59.9026 97.8749C59.9026 98.6854 59.7934 99.436 59.5749 100.127C59.3564 100.817 59.0428 101.416 58.634 101.924C58.2323 102.431 57.7425 102.83 57.1645 103.119C56.5937 103.4 55.9523 103.541 55.2405 103.541C54.6344 103.541 54.1163 103.45 53.6864 103.267C53.2565 103.076 52.8724 102.815 52.5341 102.484V106.924H49.9229V92.5362H51.5192C51.8575 92.5362 52.0795 92.6948 52.1852 93.0119L52.3967 94.0162ZM66.7396 92.367C67.543 92.367 68.2725 92.4974 68.9279 92.7582C69.5904 93.019 70.1543 93.389 70.6194 93.8682C71.0916 94.3475 71.4546 94.9324 71.7083 95.6231C71.962 96.3138 72.0889 97.0856 72.0889 97.9384C72.0889 98.7982 71.962 99.5735 71.7083 100.264C71.4546 100.955 71.0916 101.543 70.6194 102.03C70.1543 102.516 69.5904 102.889 68.9279 103.15C68.2725 103.411 67.543 103.541 66.7396 103.541C65.9291 103.541 65.1926 103.411 64.5301 103.15C63.8676 102.889 63.3002 102.516 62.828 102.03C62.3629 101.543 61.9999 100.955 61.7391 100.264C61.4854 99.5735 61.3586 98.7982 61.3586 97.9384C61.3586 97.0856 61.4854 96.3138 61.7391 95.6231C61.9999 94.9324 62.3629 94.3475 62.828 93.8682C63.3002 93.389 63.8676 93.019 64.5301 92.7582C65.1926 92.4974 65.9291 92.367 66.7396 92.367ZM66.7396 101.533C67.6417 101.533 68.3077 101.23 68.7377 100.624C69.1746 100.017 69.3931 99.1294 69.3931 97.9595C69.3931 96.7896 69.1746 95.898 68.7377 95.2848C68.3077 94.6717 67.6417 94.3651 66.7396 94.3651C65.8234 94.3651 65.1432 94.6752 64.6992 95.2954C64.2623 95.9086 64.0438 96.7966 64.0438 97.9595C64.0438 99.1224 64.2623 100.01 64.6992 100.624C65.1432 101.23 65.8234 101.533 66.7396 101.533ZM76.5442 94.418C76.8825 93.7695 77.2843 93.2621 77.7494 92.8956C78.2146 92.5221 78.7643 92.3353 79.3986 92.3353C79.899 92.3353 80.3007 92.4446 80.6038 92.663L80.4347 94.6188C80.3994 94.7457 80.3466 94.8373 80.2761 94.8937C80.2126 94.943 80.1245 94.9677 80.0118 94.9677C79.9061 94.9677 79.7475 94.9501 79.5361 94.9148C79.3317 94.8796 79.1308 94.862 78.9335 94.862C78.6445 94.862 78.3873 94.9043 78.1617 94.9888C77.9362 95.0734 77.7318 95.1967 77.5486 95.3588C77.3724 95.5139 77.2138 95.7042 77.0728 95.9297C76.9389 96.1552 76.8121 96.4125 76.6922 96.7015V103.383H74.081V92.5362H75.6139C75.8817 92.5362 76.0685 92.5855 76.1742 92.6842C76.2799 92.7758 76.3504 92.945 76.3857 93.1916L76.5442 94.418ZM85.5841 103.552C84.6397 103.552 83.9138 103.288 83.4063 102.759C82.9059 102.223 82.6557 101.487 82.6557 100.55V94.492H81.5457C81.4047 94.492 81.2849 94.4461 81.1862 94.3545C81.0876 94.2629 81.0382 94.1255 81.0382 93.9422V92.9062L82.7826 92.6207L83.3323 89.6607C83.3675 89.5197 83.4345 89.4105 83.5332 89.3329C83.6318 89.2554 83.7587 89.2166 83.9138 89.2166H85.2669V92.6313H88.1636V94.492H85.2669V100.37C85.2669 100.708 85.348 100.972 85.5101 101.163C85.6792 101.353 85.9083 101.448 86.1973 101.448C86.3594 101.448 86.4933 101.431 86.599 101.395C86.7118 101.353 86.8069 101.311 86.8844 101.268C86.969 101.226 87.043 101.187 87.1064 101.152C87.1699 101.11 87.2333 101.089 87.2967 101.089C87.3742 101.089 87.4377 101.11 87.487 101.152C87.5364 101.187 87.5892 101.244 87.6456 101.321L88.4279 102.59C88.0473 102.907 87.6104 103.147 87.117 103.309C86.6237 103.471 86.1127 103.552 85.5841 103.552Z" fill="white"/>
<path fill-rule="evenodd" clip-rule="evenodd" d="M56.1481 22.7003C69.102 22.7003 79.6409 33.2392 79.6409 46.1931C79.6409 59.1471 69.102 69.686 56.1481 69.686C43.1942 69.686 32.6553 59.1471 32.6553 46.1931C32.6553 33.2392 43.1942 22.7003 56.1481 22.7003ZM56.1481 26.2242C45.137 26.2242 36.1792 35.1821 36.1792 46.1931C36.1792 57.2042 45.137 66.162 56.1481 66.162C67.1592 66.162 76.117 57.2042 76.117 46.1931C76.117 35.1821 67.1592 26.2242 56.1481 26.2242ZM56.1573 52.7615C57.4564 52.7615 58.5065 53.8116 58.5065 55.1108C58.5065 56.4099 57.4564 57.4601 56.1573 57.4601C54.8581 57.4601 53.7962 56.4099 53.7962 55.1108C53.7962 53.8116 54.837 52.7615 56.1338 52.7615H56.1573ZM56.1342 35.5133C57.1068 35.5133 57.8962 36.3027 57.8962 37.2753V47.6567C57.8962 48.6293 57.1068 49.4187 56.1342 49.4187C55.1616 49.4187 54.3723 48.6293 54.3723 47.6567V37.2753C54.3723 36.3027 55.1616 35.5133 56.1342 35.5133Z" fill="white"/>
<defs>
<linearGradient id="paint0_linear_889_532" x1="5.15671e-07" y1="64" x2="112.759" y2="64" gradientUnits="userSpaceOnUse">
<stop stop-color="#9A031E"/>
<stop offset="1" stop-color="#E36414"/>
</linearGradient>
</defs>
</svg>
