<svg width="50" height="50" viewBox="0 0 50 50" fill="none" xmlns="http://www.w3.org/2000/svg">
<circle cx="25" cy="25" r="25" fill="#112A7F"/>
<path d="M23.6225 21.0806V22.7501H22.4004V24.7906H23.6225V30.8564H26.1347V24.7906H27.82C27.82 24.7906 27.9788 23.8122 28.0552 22.7416H26.1444V21.3473C26.1444 21.1376 26.4184 20.8575 26.69 20.8575H28.0576V18.7321H26.1965C23.5607 18.7321 23.6225 20.7751 23.6225 21.0806Z" fill="white"/>
<path d="M25.2054 34.4944C27.7778 34.4944 30.2449 33.4725 32.0639 31.6535C33.8829 29.8345 34.9048 27.3674 34.9048 24.7949C34.9048 22.2225 33.8829 19.7554 32.0639 17.9364C30.2449 16.1174 27.7778 15.0955 25.2054 15.0955C22.6329 15.0955 20.1658 16.1174 18.3468 17.9364C16.5278 19.7554 15.5059 22.2225 15.5059 24.7949C15.5059 27.3674 16.5278 29.8345 18.3468 31.6535C20.1658 33.4725 22.6329 34.4944 25.2054 34.4944ZM25.2054 36.9192C18.5091 36.9192 13.0811 31.4912 13.0811 24.7949C13.0811 18.0986 18.5091 12.6706 25.2054 12.6706C31.9016 12.6706 37.3297 18.0986 37.3297 24.7949C37.3297 31.4912 31.9016 36.9192 25.2054 36.9192Z" fill="white"/>
</svg>
