<svg width="55" height="55" viewBox="0 0 55 55" fill="none" xmlns="http://www.w3.org/2000/svg">
<rect width="55" height="55" rx="27.5" fill="#FFF0BF"/>
<path d="M27 32.6875C31.0655 32.6875 34.5 28.6089 34.5 23.7812C34.5 18.9536 31.0655 14.875 27 14.875C22.9345 14.875 19.5 18.9536 19.5 23.7812C19.5 28.6089 22.9345 32.6875 27 32.6875ZM27 16.75C30.0492 16.75 32.625 19.9698 32.625 23.7812C32.625 27.5927 30.0492 30.8125 27 30.8125C23.9508 30.8125 21.375 27.5927 21.375 23.7812C21.375 19.9698 23.9508 16.75 27 16.75Z" fill="#FFC300"/>
<path d="M13.923 34.2658L12.048 39.8908C12.0011 40.0317 11.9883 40.1818 12.0107 40.3286C12.0332 40.4754 12.0901 40.6148 12.1769 40.7353C12.2638 40.8558 12.378 40.954 12.5101 41.0218C12.6423 41.0895 12.7887 41.1249 12.9372 41.125H41.0622C41.3636 41.125 41.6468 40.9802 41.8225 40.7355C41.9095 40.615 41.9666 40.4756 41.989 40.3287C42.0114 40.1818 41.9985 40.0317 41.9515 39.8908L40.0765 34.2658C40.0282 34.1212 39.9454 33.9906 39.8353 33.8853C39.7252 33.7799 39.5911 33.703 39.4446 33.6611L32.8821 31.7861C32.6566 31.7212 32.4149 31.7436 32.2052 31.8489L26.9997 34.4519L21.7943 31.8489C21.5845 31.7438 21.3429 31.7214 21.1174 31.7861L14.5549 33.6611C14.4083 33.7029 14.2742 33.7799 14.1641 33.8852C14.054 33.9906 13.9713 34.1212 13.923 34.2658V34.2658ZM21.2819 33.6892L26.5807 36.3386C26.7109 36.4036 26.8544 36.4374 27 36.4374C27.1455 36.4374 27.289 36.4036 27.4193 36.3386L32.718 33.6892L38.4546 35.328L39.7619 39.25H14.2375L15.5449 35.328L21.2819 33.6892V33.6892ZM41.0622 15.8125H39.1872V13.9375C39.1872 13.6889 39.0885 13.4504 38.9126 13.2746C38.7368 13.0988 38.4984 13 38.2497 13C38.0011 13 37.7626 13.0988 37.5868 13.2746C37.411 13.4504 37.3122 13.6889 37.3122 13.9375V15.8125H35.4372C35.1886 15.8125 34.9501 15.9113 34.7743 16.0871C34.5985 16.2629 34.4997 16.5014 34.4997 16.75C34.4997 16.9986 34.5985 17.2371 34.7743 17.4129C34.9501 17.5887 35.1886 17.6875 35.4372 17.6875H37.3122V19.5625C37.3122 19.8111 37.411 20.0496 37.5868 20.2254C37.7626 20.4012 38.0011 20.5 38.2497 20.5C38.4984 20.5 38.7368 20.4012 38.9126 20.2254C39.0885 20.0496 39.1872 19.8111 39.1872 19.5625V17.6875H41.0622C41.3109 17.6875 41.5493 17.5887 41.7251 17.4129C41.901 17.2371 41.9997 16.9986 41.9997 16.75C41.9997 16.5014 41.901 16.2629 41.7251 16.0871C41.5493 15.9113 41.3109 15.8125 41.0622 15.8125V15.8125Z" fill="#FFC300"/>
</svg>
