<svg width="143" height="120" viewBox="0 0 143 120" fill="none" xmlns="http://www.w3.org/2000/svg">
<rect width="143" height="120" rx="8.80981" fill="#FFF0BF"/>
<path d="M56.6633 85.2841C56.8042 84.3256 57.0674 83.4845 57.4527 82.761C57.8473 82.0374 58.3407 81.436 58.9327 80.9567C59.5247 80.4681 60.2013 80.1016 60.9625 79.8573C61.733 79.6035 62.5647 79.4767 63.4574 79.4767C64.3595 79.4767 65.1771 79.6082 65.9101 79.8713C66.6524 80.1251 67.2867 80.4822 67.813 80.9426C68.3486 81.4031 68.7574 81.9528 69.0393 82.5918C69.3306 83.2308 69.4763 83.9309 69.4763 84.6921C69.4763 85.3405 69.3964 85.9137 69.2367 86.4117C69.0863 86.9004 68.8655 87.3327 68.5742 87.7086C68.2922 88.0844 67.9445 88.3992 67.5311 88.653C67.1176 88.9067 66.6524 89.1181 66.1356 89.2873C67.3948 89.6538 68.3392 90.2411 68.9688 91.0492C69.5984 91.848 69.9132 92.8535 69.9132 94.0657C69.9132 95.043 69.73 95.9122 69.3635 96.6734C68.997 97.4346 68.499 98.0783 67.8694 98.6045C67.2492 99.1308 66.5209 99.5348 65.6845 99.8168C64.8576 100.089 63.979 100.226 63.0486 100.226C62.0056 100.226 61.1034 100.103 60.3423 99.859C59.5811 99.6053 58.9233 99.2482 58.3689 98.7878C57.8238 98.3179 57.3681 97.7541 57.0016 97.0963C56.6351 96.4385 56.325 95.7008 56.0713 94.8833L57.3822 94.3335C57.7299 94.1832 58.0588 94.1409 58.3689 94.2067C58.6884 94.2724 58.9186 94.4463 59.0596 94.7282C59.2099 95.0289 59.3791 95.3531 59.567 95.7008C59.7549 96.0391 59.9946 96.3539 60.2859 96.6452C60.5866 96.9271 60.9531 97.1668 61.3853 97.3641C61.827 97.552 62.3673 97.646 63.0064 97.646C63.6548 97.646 64.2186 97.5427 64.6978 97.3359C65.1865 97.1198 65.5906 96.8473 65.9101 96.5184C66.239 96.1801 66.4833 95.8042 66.643 95.3907C66.8028 94.9772 66.8827 94.5685 66.8827 94.1644C66.8827 93.6569 66.8216 93.1918 66.6994 92.7689C66.5773 92.3366 66.3376 91.9702 65.9805 91.6694C65.6329 91.3687 65.1348 91.1338 64.4864 90.9647C63.8474 90.7861 63.0064 90.6968 61.9633 90.6968V88.512C62.8184 88.5026 63.5373 88.418 64.1199 88.2583C64.7119 88.0891 65.1818 87.8636 65.5295 87.5817C65.8866 87.2904 66.1403 86.9427 66.2907 86.5386C66.4504 86.1345 66.5303 85.6929 66.5303 85.2136C66.5303 84.6968 66.4504 84.241 66.2907 83.8463C66.1309 83.4517 65.9054 83.1228 65.6141 82.8596C65.3321 82.5871 64.9938 82.3851 64.5992 82.2535C64.2045 82.122 63.7675 82.0562 63.2883 82.0562C62.8278 82.0562 62.4002 82.122 62.0056 82.2535C61.6203 82.3851 61.2726 82.5683 60.9625 82.8033C60.6618 83.0382 60.408 83.3201 60.2013 83.649C59.9946 83.9685 59.8442 84.3209 59.7502 84.7062C59.6187 85.0915 59.4401 85.3499 59.2146 85.4814C58.9985 85.613 58.679 85.6412 58.2561 85.566L56.6633 85.2841ZM79.5005 97.7165C80.1113 97.7165 80.6705 97.6178 81.1779 97.4205C81.6854 97.2138 82.1176 96.9318 82.4747 96.5747C82.8412 96.2177 83.1231 95.7948 83.3205 95.3061C83.5178 94.8175 83.6165 94.2865 83.6165 93.7133C83.6165 93.0931 83.5178 92.5387 83.3205 92.05C83.1325 91.552 82.86 91.1338 82.5029 90.7955C82.1552 90.4572 81.7323 90.1988 81.2343 90.0202C80.7456 89.8323 80.2053 89.7383 79.6133 89.7383C79.0025 89.7383 78.448 89.8417 77.95 90.0484C77.4613 90.2552 77.0432 90.5371 76.6955 90.8942C76.3478 91.2513 76.08 91.6694 75.892 92.1487C75.7041 92.628 75.6101 93.1354 75.6101 93.671C75.6101 94.2724 75.6947 94.8222 75.8638 95.3202C76.033 95.8183 76.282 96.2458 76.6109 96.6029C76.9398 96.9506 77.3439 97.2231 77.8231 97.4205C78.3118 97.6178 78.8709 97.7165 79.5005 97.7165ZM78.387 87.1729C78.2366 87.3609 78.091 87.5394 77.95 87.7086C77.8184 87.8777 77.6869 88.0469 77.5553 88.216C77.9876 87.9717 78.4621 87.779 78.979 87.6381C79.4958 87.4971 80.0503 87.4266 80.6423 87.4266C81.4316 87.4266 82.1881 87.5582 82.9117 87.8213C83.6353 88.075 84.2696 88.4603 84.8146 88.9772C85.369 89.4846 85.8107 90.1189 86.1396 90.8801C86.4685 91.6319 86.6329 92.5011 86.6329 93.4878C86.6329 94.4275 86.4591 95.3061 86.1114 96.1237C85.7731 96.9412 85.2939 97.6554 84.6736 98.2662C84.0534 98.8676 83.3064 99.3469 82.4324 99.704C81.5679 100.052 80.6094 100.226 79.5569 100.226C78.5044 100.226 77.5553 100.056 76.7096 99.7181C75.8638 99.3798 75.1403 98.9052 74.5388 98.2944C73.9468 97.6742 73.4911 96.9318 73.1716 96.0673C72.8521 95.2028 72.6923 94.2396 72.6923 93.1777C72.6923 92.2568 72.8896 91.2936 73.2843 90.2881C73.679 89.2826 74.2898 88.2254 75.1168 87.1165L80.1066 80.4211C80.257 80.2237 80.4731 80.0546 80.755 79.9136C81.0463 79.7727 81.3705 79.7022 81.7276 79.7022H84.4058L78.387 87.1729Z" fill="black"/>
<line x1="22" y1="59" x2="122" y2="59" stroke="black" stroke-width="2" stroke-dasharray="4 4"/>
</svg>
