<svg width="55" height="55" viewBox="0 0 55 55" fill="none" xmlns="http://www.w3.org/2000/svg">
<rect width="55" height="55" rx="27.5" fill="#FFF0BF"/>
<path d="M21.75 12.5C23.975 12.5 25.0875 15.2 23.525 16.775C21.95 18.3375 19.25 17.225 19.25 15C19.25 14.337 19.5134 13.7011 19.9822 13.2322C20.4511 12.7634 21.087 12.5 21.75 12.5V12.5ZM19.875 18.75H23.625C24.288 18.75 24.9239 19.0134 25.3928 19.4822C25.8616 19.9511 26.125 20.587 26.125 21.25V28.125H24.25V37.5H19.25V28.125H17.375V21.25C17.375 20.587 17.6384 19.9511 18.1072 19.4822C18.5761 19.0134 19.212 18.75 19.875 18.75V18.75ZM36.75 20H39.25L35.5 15L31.75 20H34.25V30H31.75L35.5 35L39.25 30H36.75V20ZM40.5 12.5H30.5V15H40.5V12.5ZM40.5 35H30.5V37.5H40.5" fill="#FFC300"/>
</svg>
