<svg width="31" height="24" viewBox="0 0 31 24" fill="none" xmlns="http://www.w3.org/2000/svg">
<path d="M15.3717 0.709229C12.3755 0.709229 9.44661 1.36477 6.95536 2.59297C4.46411 3.82116 2.52241 5.56684 1.37582 7.60925C0.22922 9.65166 -0.070782 11.8991 0.513748 14.0673C1.09828 16.2355 2.54109 18.2271 4.65972 19.7903C6.77836 21.3535 9.47766 22.4181 12.4163 22.8493C15.3549 23.2806 18.4009 23.0593 21.169 22.2133C23.9372 21.3673 26.3031 19.9347 27.9677 18.0965C29.6323 16.2584 30.5208 14.0974 30.5208 11.8867C30.5162 8.92326 28.9187 6.08219 26.0787 3.98674C23.2387 1.8913 19.3881 0.712595 15.3717 0.709229ZM27.9089 8.41781L26.3417 10.7304L24.7746 8.41781H27.9089ZM20.5955 2.63637V4.94895C20.1799 4.94895 19.7813 4.82713 19.4874 4.61028C19.1935 4.39343 19.0284 4.09933 19.0284 3.79266C19.0284 3.486 19.1935 3.19189 19.4874 2.97504C19.7813 2.7582 20.1799 2.63637 20.5955 2.63637ZM10.6703 2.63637L12.2374 3.79266L10.6703 4.94895L9.10315 3.79266L10.6703 2.63637ZM3.33867 9.00251L3.46979 9.67971L6.55915 8.53961C6.63318 8.51231 6.71495 8.49838 6.7977 8.49896C6.88046 8.49955 6.96185 8.51463 7.03515 8.54298C7.10846 8.57132 7.17159 8.61211 7.21934 8.66198C7.2671 8.71185 7.2981 8.76939 7.30982 8.82983L7.54384 10.0366L6.50953 10.1457L6.37841 9.46849L3.28904 10.6086C3.21501 10.6359 3.13325 10.6498 3.05049 10.6492C2.96774 10.6486 2.88635 10.6336 2.81305 10.6052C2.73974 10.5769 2.67661 10.5361 2.62885 10.4862C2.5811 10.4363 2.55009 10.3788 2.53838 10.3184L2.30435 9.11158L3.33867 9.00251ZM4.40172 17.2827L5.96886 14.9701L7.53601 17.2827H4.40172ZM15.3717 21.9078C15.0618 21.9078 14.7588 21.84 14.5011 21.713C14.2434 21.5859 14.0425 21.4053 13.9239 21.194C13.8053 20.9828 13.7742 20.7503 13.8347 20.526C13.8952 20.3017 14.0444 20.0956 14.2636 19.9339C14.4828 19.7722 14.762 19.6621 15.066 19.6175C15.37 19.5729 15.6851 19.5958 15.9715 19.6833C16.2578 19.7708 16.5026 19.919 16.6748 20.1091C16.847 20.2993 16.9389 20.5229 16.9389 20.7515C16.9389 21.0582 16.7738 21.3523 16.4799 21.5692C16.186 21.786 15.7874 21.9078 15.3717 21.9078ZM27.2878 16.3519C27.2394 16.4014 27.1757 16.4417 27.1021 16.4695C27.0284 16.4973 26.9469 16.5118 26.8641 16.5118H23.4096L23.7032 17.1609L22.7107 17.4045L22.1883 16.2482C22.1621 16.1902 22.155 16.1284 22.1676 16.068C22.1801 16.0076 22.212 15.9502 22.2605 15.9006C22.309 15.8511 22.3729 15.8108 22.4467 15.783C22.5205 15.7552 22.6022 15.7408 22.6851 15.741H26.1396L25.846 15.0919L26.8385 14.8483L27.3609 16.0046C27.3869 16.0626 27.3938 16.1244 27.3811 16.1847C27.3684 16.2451 27.3364 16.3024 27.2878 16.3519ZM28.9537 13.8138H19.8757L22.1475 20.6598C22.1761 20.746 22.1636 20.8367 22.112 20.9169C22.0604 20.997 21.973 21.0615 21.8644 21.0996C21.7945 21.1243 21.7179 21.1371 21.6403 21.137C21.5592 21.137 21.4792 21.123 21.4067 21.0963C21.3342 21.0695 21.2711 21.0307 21.2224 20.9828L15.3717 15.2734L9.52106 20.9828C9.44857 21.0536 9.34515 21.1039 9.22829 21.125C9.11143 21.1461 8.98827 21.1367 8.87964 21.0986C8.77101 21.0604 8.68355 20.9958 8.63205 20.9156C8.58055 20.8353 8.56815 20.7445 8.59696 20.6583L10.8683 13.8138H1.78981C1.67143 13.8141 1.55643 13.7847 1.46366 13.7304C1.37089 13.6762 1.30586 13.6003 1.27921 13.5152C1.25256 13.4301 1.26587 13.3408 1.31698 13.262C1.36808 13.1832 1.45394 13.1196 1.56048 13.0815L10.0053 10.0366L5.02857 5.18021C4.95813 5.11106 4.92126 5.02643 4.9239 4.93994C4.92654 4.85346 4.96853 4.77014 5.04313 4.7034C5.11773 4.63666 5.22058 4.59038 5.33515 4.57199C5.44972 4.55361 5.56934 4.5642 5.67476 4.60206L13.0403 7.26152L14.8645 1.77378C14.8924 1.69009 14.9576 1.61572 15.0495 1.56256C15.1415 1.50939 15.2549 1.4805 15.3717 1.4805C15.4886 1.4805 15.602 1.50939 15.6939 1.56256C15.7859 1.61572 15.851 1.69009 15.879 1.77378L17.7005 7.26152L25.0661 4.60399C25.1713 4.566 25.2907 4.5552 25.4053 4.57331C25.5198 4.59143 25.6227 4.63741 25.6976 4.70388C25.7724 4.77035 25.8148 4.85345 25.8179 4.93983C25.8211 5.02621 25.7848 5.11087 25.7149 5.18021L20.7387 10.0366L29.183 13.0815C29.2895 13.1196 29.3754 13.1832 29.4265 13.262C29.4776 13.3408 29.4909 13.4301 29.4643 13.5152C29.4376 13.6003 29.3726 13.6762 29.2798 13.7304C29.187 13.7847 29.072 13.8141 28.9537 13.8138Z" fill="white"/>
</svg>
