<svg width="31" height="17" viewBox="0 0 31 17" fill="none" xmlns="http://www.w3.org/2000/svg">
<path d="M15.301 10.9883C20.0807 10.9883 24.1619 11.5473 24.1619 13.7847C24.1619 16.021 20.1069 16.6005 15.301 16.6005C10.5213 16.6005 6.44012 16.0414 6.44012 13.805C6.44012 11.5677 10.4951 10.9883 15.301 10.9883ZM22.9432 9.64106C24.7705 9.61607 26.735 9.8012 27.4609 9.93264C28.9989 10.1557 30.0104 10.6111 30.4295 11.273C30.7838 11.8163 30.7838 12.4467 30.4295 12.9891C29.7884 14.0157 27.7216 14.3452 26.9184 14.4304C26.7525 14.4489 26.619 14.3425 26.6365 14.2193C27.0468 11.3748 23.7826 10.0261 22.9382 9.71604C22.902 9.70215 22.8945 9.68086 22.8983 9.6679C22.9008 9.65865 22.9157 9.64384 22.9432 9.64106ZM7.45771 9.63914L7.80181 9.64143C7.82925 9.64421 7.84297 9.65902 7.84546 9.66735C7.84921 9.68123 7.84172 9.7016 7.8068 9.71641C6.96112 10.0265 3.6969 11.3752 4.10727 14.2188C4.12473 14.3428 3.99252 14.4483 3.82662 14.4308C3.02336 14.3456 0.956559 14.0161 0.315441 12.9895C-0.0400429 12.4462 -0.0400429 11.8167 0.315441 11.2734C0.734538 10.6115 1.74486 10.1561 3.2828 9.93208C4.00998 9.80157 5.97325 9.61644 7.80181 9.64143L7.45771 9.63914ZM15.301 0.155518C18.5553 0.155518 21.1646 2.09013 21.1646 4.50609C21.1646 6.92112 18.5553 8.85758 15.301 8.85758C12.0468 8.85758 9.43741 6.92112 9.43741 4.50609C9.43741 2.09013 12.0468 0.155518 15.301 0.155518ZM23.2612 0.881045C26.4045 0.881045 28.8729 3.07577 28.0322 5.52042C27.4647 7.16623 25.4104 8.25943 23.1215 8.215C22.892 8.21037 22.6663 8.19463 22.448 8.16686C22.2896 8.1465 22.2098 8.01413 22.2996 7.91601C23.1727 6.96259 23.6704 5.8157 23.6704 4.58458C23.6704 3.29978 23.1265 2.10198 22.1823 1.11986C22.1524 1.08932 22.1299 1.04211 22.1599 1.00693C22.1848 0.978238 22.231 0.963428 22.2746 0.956023C22.5927 0.907889 22.9195 0.881045 23.2612 0.881045ZM7.48187 0.880952C7.82364 0.880952 8.15043 0.907796 8.46974 0.95593C8.51215 0.963335 8.55955 0.979071 8.5845 1.00684C8.61318 1.04202 8.59198 1.08922 8.56204 1.11977C7.61783 2.10189 7.074 3.29968 7.074 4.58449C7.074 5.81561 7.57168 6.96249 8.4448 7.91592C8.5346 8.01404 8.45478 8.14641 8.29637 8.16677C8.07684 8.19547 7.85232 8.21028 7.62282 8.2149C5.334 8.25934 3.27968 7.16614 2.71215 5.52033C1.87022 3.07568 4.33865 0.880952 7.48187 0.880952Z" fill="white"/>
</svg>
