<svg width="25" height="25" viewBox="0 0 25 25" fill="none" xmlns="http://www.w3.org/2000/svg">
<path fill-rule="evenodd" clip-rule="evenodd" d="M16.9583 2.54871C18.5662 2.54871 19.9533 3.08571 20.9683 4.10271C22.0293 5.16471 22.6112 6.70971 22.6093 8.45371L22.6107 15.4501C22.6125 15.477 22.6128 15.504 22.6116 15.5309L22.6093 16.5987C22.6093 20.1297 20.3363 22.5027 16.9533 22.5027H8.30725C4.92725 22.5027 2.65625 20.1297 2.65625 16.5987V8.45271C2.65625 4.92171 4.92725 2.54871 8.30725 2.54871H16.9583ZM17.2349 13.381C16.6469 13.381 15.9569 14.354 15.3458 15.213C14.5078 16.393 13.6409 17.614 12.3349 17.614C11.4518 17.614 10.6428 17.274 9.92985 16.973C8.79585 16.495 8.28185 16.342 7.77885 16.756C6.77195 17.5857 5.77703 19.0966 5.31988 19.8401C6.04143 20.5841 7.06641 21.0027 8.30725 21.0027H16.9533C19.4783 21.0027 21.1093 19.2747 21.1093 16.5987L21.1092 15.7997L21.0862 15.7754C20.2108 14.8735 18.6991 13.381 17.2349 13.381ZM16.9583 4.04871H8.30725C5.78625 4.04871 4.15625 5.77771 4.15625 8.45271V16.5987C4.15625 17.2673 4.258 17.8767 4.44997 18.4148C5.02866 17.541 5.90264 16.3581 6.82585 15.598C8.07785 14.568 9.42585 15.134 10.5118 15.591C11.1509 15.86 11.7549 16.114 12.3349 16.114C12.8668 16.114 13.5339 15.174 14.1239 14.345C14.9429 13.189 15.8729 11.881 17.2349 11.881C18.7296 11.881 20.0834 12.7996 21.1103 13.7111L21.1093 8.45271C21.1112 7.08971 20.6952 5.95171 19.9072 5.16271C19.1792 4.43371 18.1602 4.04871 16.9583 4.04871ZM9.51325 6.73821C10.9443 6.73921 12.1082 7.90321 12.1093 9.33321V9.33421C12.1093 10.7652 10.9452 11.9292 9.51325 11.9292C8.08125 11.9292 6.91725 10.7652 6.91725 9.33421C6.91725 7.90221 8.08125 6.73821 9.51325 6.73821ZM9.51225 8.23821C8.90825 8.23821 8.41725 8.72921 8.41725 9.33421C8.41725 9.93821 8.90825 10.4292 9.51325 10.4292C10.1172 10.4292 10.6093 9.93821 10.6093 9.33521C10.6083 8.73021 10.1163 8.23921 9.51225 8.23821Z" fill="white" stroke="white" stroke-width="0.880981"/>
</svg>
