<svg width="27" height="22" viewBox="0 0 27 22" fill="none" xmlns="http://www.w3.org/2000/svg">
<path d="M5.40681 0.656982C7.88639 0.656982 9.12617 2.87705 7.3849 4.1721C5.6297 5.45686 2.62078 4.54211 2.62078 2.7126C2.62078 2.16742 2.91431 1.64456 3.43679 1.25906C3.95927 0.873556 4.66791 0.656982 5.40681 0.656982ZM3.31729 5.79604H7.49634C8.23524 5.79604 8.94388 6.01261 9.46637 6.39812C9.98885 6.78362 10.2824 7.30647 10.2824 7.85166V13.5046H8.19285V21.2132H2.62078V13.5046H0.53125V7.85166C0.53125 7.30647 0.824778 6.78362 1.34726 6.39812C1.86974 6.01261 2.57838 5.79604 3.31729 5.79604ZM22.123 6.82385H24.9091L20.73 2.7126L16.551 6.82385H19.337V15.0463H16.551L20.73 19.1576L24.9091 15.0463H22.123V6.82385ZM26.3021 0.656982H15.1579V2.7126H26.3021V0.656982ZM26.3021 19.1576H15.1579V21.2132H26.3021" fill="white"/>
</svg>
