<svg width="20" height="21" viewBox="0 0 20 21" fill="none" xmlns="http://www.w3.org/2000/svg">
<path d="M6.79103 19.1337V16.076C6.79103 15.2954 7.42842 14.6627 8.21469 14.6627H11.0889C11.4664 14.6627 11.8286 14.8116 12.0955 15.0766C12.3625 15.3417 12.5125 15.7011 12.5125 16.076V19.1337C12.5101 19.4582 12.6383 19.7702 12.8686 20.0005C13.0989 20.2308 13.4123 20.3604 13.7392 20.3604H15.7001C16.6159 20.3627 17.495 20.0032 18.1434 19.3612C18.7918 18.7191 19.1562 17.8473 19.1562 16.9382V8.22721C19.1562 7.49281 18.8283 6.7962 18.2609 6.32502L11.5903 1.03622C10.4299 0.108913 8.76736 0.138854 7.64164 1.10733L1.12326 6.32502C0.528991 6.78231 0.173802 7.48099 0.15625 8.22721V16.9293C0.15625 18.8242 1.70363 20.3604 3.61242 20.3604H5.52854C6.20748 20.3604 6.75925 19.8166 6.76417 19.1426L6.79103 19.1337Z" fill="white"/>
</svg>
