<svg width="25" height="25" viewBox="0 0 25 25" fill="none" xmlns="http://www.w3.org/2000/svg">
<path d="M12.4414 0.570435C19.0774 0.570435 24.4414 5.94763 24.4414 12.5704C24.4414 19.1956 19.0774 24.5704 12.4414 24.5704C5.81741 24.5704 0.441406 19.1956 0.441406 12.5704C0.441406 5.94763 5.81741 0.570435 12.4414 0.570435ZM12.4414 16.0876C11.8654 16.0876 11.3974 16.5556 11.3974 17.1316C11.3974 17.7076 11.8654 18.1876 12.4534 18.1876C13.0294 18.1876 13.4974 17.7076 13.4974 17.1316C13.4974 16.5556 13.0294 16.0876 12.4414 16.0876ZM12.4414 6.96643C11.8654 6.96643 11.3854 7.44763 11.3854 8.02243V13.3264C11.3854 13.9036 11.8654 14.3704 12.4414 14.3704C13.0174 14.3704 13.4854 13.9036 13.4854 13.3264V8.02243C13.4854 7.44763 13.0174 6.96643 12.4414 6.96643Z" fill="white"/>
</svg>
