<svg width="35" height="26" viewBox="0 0 35 26" fill="none" xmlns="http://www.w3.org/2000/svg">
<path d="M29.9879 12.6791H27.2018C26.8324 12.6791 26.4781 12.7874 26.2168 12.9802C25.9556 13.1729 25.8088 13.4343 25.8088 13.7069C25.8088 13.9795 25.9556 14.2409 26.2168 14.4337C26.4781 14.6265 26.8324 14.7347 27.2018 14.7347V16.7904H25.5521C25.7173 16.4612 25.8041 16.1135 25.8088 15.7625C25.809 15.0838 25.5055 14.4239 24.9455 13.8854C24.3855 13.3469 23.6002 12.9597 22.7116 12.7841C21.8229 12.6085 20.8806 12.6541 20.0307 12.914C19.1808 13.1738 18.4709 13.6334 18.0112 14.2213C17.9188 14.3383 17.8587 14.4675 17.8342 14.6017C17.8098 14.7358 17.8215 14.8722 17.8686 15.003C17.9158 15.1338 17.9976 15.2564 18.1091 15.3639C18.2207 15.4713 18.36 15.5614 18.5189 15.629C18.6778 15.6966 18.8533 15.7404 19.0352 15.7579C19.2171 15.7753 19.4019 15.7661 19.5789 15.7307C19.756 15.6953 19.9218 15.6344 20.0669 15.5516C20.212 15.4688 20.3335 15.3657 20.4245 15.2481C20.5468 15.0922 20.7226 14.9626 20.9341 14.8725C21.1456 14.7824 21.3855 14.7349 21.6298 14.7347C21.9992 14.7347 22.3535 14.843 22.6148 15.0358C22.876 15.2285 23.0228 15.49 23.0228 15.7625C23.0228 16.0351 22.876 16.2966 22.6148 16.4893C22.3535 16.6821 21.9992 16.7904 21.6298 16.7904C21.2603 16.7904 20.906 16.8986 20.6447 17.0914C20.3835 17.2842 20.2367 17.5456 20.2367 17.8182C20.2367 18.0908 20.3835 18.3522 20.6447 18.5449C20.906 18.7377 21.2603 18.846 21.6298 18.846C21.9992 18.846 22.3535 18.9543 22.6148 19.147C22.876 19.3398 23.0228 19.6012 23.0228 19.8738C23.0228 20.1464 22.876 20.4078 22.6148 20.6006C22.3535 20.7933 21.9992 20.9016 21.6298 20.9016C21.3855 20.9014 21.1456 20.8539 20.9341 20.7638C20.7226 20.6737 20.5468 20.5442 20.4245 20.3882C20.3336 20.2707 20.2121 20.1675 20.0669 20.0847C19.9218 20.0019 19.756 19.941 19.5789 19.9056C19.4019 19.8703 19.2171 19.861 19.0352 19.8785C18.8533 19.8959 18.6778 19.9397 18.5189 20.0073C18.36 20.0749 18.2207 20.165 18.1092 20.2725C17.9976 20.3799 17.9158 20.5025 17.8687 20.6333C17.8215 20.7641 17.8098 20.9005 17.8343 21.0346C17.8587 21.1688 17.9188 21.298 18.0112 21.415C18.4709 22.0029 19.1808 22.4625 20.0307 22.7223C20.8806 22.9822 21.8229 23.0278 22.7116 22.8522C23.6002 22.6766 24.3854 22.2895 24.9455 21.7509C25.5055 21.2124 25.8089 20.5526 25.8088 19.8738C25.8041 19.5228 25.7173 19.1751 25.5521 18.846H27.2018V21.9294C27.2018 22.202 27.3486 22.4634 27.6098 22.6562C27.8711 22.8489 28.2254 22.9572 28.5949 22.9572C28.9643 22.9572 29.3186 22.8489 29.5799 22.6562C29.8411 22.4634 29.9879 22.202 29.9879 21.9294V14.7347C30.3573 14.7347 30.7116 14.6265 30.9729 14.4337C31.2341 14.2409 31.3809 13.9795 31.3809 13.7069C31.3809 13.4343 31.2341 13.1729 30.9729 12.9802C30.7116 12.7874 30.3573 12.6791 29.9879 12.6791ZM13.3138 11.9007C13.4035 12.1651 13.6318 12.3923 13.9485 12.5324C14.1054 12.6018 14.2792 12.6478 14.4601 12.6676C14.6409 12.6874 14.8253 12.6808 15.0027 12.648C15.1801 12.6152 15.347 12.557 15.4939 12.4767C15.6409 12.3963 15.7649 12.2954 15.8589 12.1797C15.953 12.064 16.0152 11.9357 16.0421 11.8023C16.0689 11.6688 16.0599 11.5328 16.0155 11.4019L13.5682 4.17659C13.3964 3.66944 12.9998 3.21921 12.4414 2.89748C11.883 2.57576 11.1948 2.401 10.4863 2.401C9.7778 2.401 9.08964 2.57576 8.53121 2.89748C7.97279 3.21921 7.57616 3.66944 7.40439 4.17659L4.95572 11.4019C4.86607 11.6662 4.9224 11.946 5.11234 12.1797C5.30227 12.4134 5.61025 12.5818 5.96851 12.648C6.32678 12.7142 6.70599 12.6726 7.02272 12.5324C7.33945 12.3923 7.56776 12.1651 7.65741 11.9007L8.4386 9.59568H12.5331L13.3138 11.9007ZM9.13528 7.54006L10.1061 4.67544C10.1355 4.61864 10.1876 4.56977 10.2555 4.53529C10.3234 4.50081 10.4039 4.48235 10.4863 4.48235C10.5687 4.48235 10.6492 4.50081 10.7171 4.53529C10.785 4.56977 10.8371 4.61864 10.8665 4.67544L11.8368 7.54006H9.13528ZM20.2367 7.54006H21.6298C21.9991 7.54033 22.3532 7.64871 22.6144 7.8414C22.8755 8.03409 23.0224 8.29536 23.0228 8.56787V9.59568C23.0228 9.86828 23.1695 10.1297 23.4308 10.3225C23.692 10.5152 24.0463 10.6235 24.4158 10.6235C24.7852 10.6235 25.1396 10.5152 25.4008 10.3225C25.662 10.1297 25.8088 9.86828 25.8088 9.59568V8.56787C25.8076 7.75037 25.3669 6.9666 24.5835 6.38854C23.8 5.81048 22.7377 5.48533 21.6298 5.48444H20.2367C19.8673 5.48444 19.513 5.59273 19.2517 5.78548C18.9905 5.97823 18.8437 6.23966 18.8437 6.51225C18.8437 6.78484 18.9905 7.04627 19.2517 7.23902C19.513 7.43177 19.8673 7.54006 20.2367 7.54006ZM14.6647 16.7904H13.2717C12.9023 16.7901 12.5482 16.6817 12.287 16.489C12.0259 16.2963 11.879 16.0351 11.8786 15.7625V14.7347C11.8786 14.4621 11.7319 14.2007 11.4706 14.008C11.2094 13.8152 10.8551 13.7069 10.4856 13.7069C10.1162 13.7069 9.76185 13.8152 9.5006 14.008C9.23936 14.2007 9.0926 14.4621 9.0926 14.7347V15.7625C9.09381 16.5801 9.53449 17.3638 10.318 17.9419C11.1014 18.5199 12.1637 18.8451 13.2717 18.846H14.6647C15.0341 18.846 15.3884 18.7377 15.6497 18.5449C15.9109 18.3522 16.0577 18.0908 16.0577 17.8182C16.0577 17.5456 15.9109 17.2842 15.6497 17.0914C15.3884 16.8986 15.0341 16.7904 14.6647 16.7904Z" fill="white"/>
</svg>
