<svg width="28" height="19" viewBox="0 0 28 19" fill="none" xmlns="http://www.w3.org/2000/svg">
<path d="M7.93891 10.802L11.8811 7.89333L3.25837 1.54146C2.58972 1.04811 1.43352 1.18173 1.01561 1.81897C0.0265674 3.35041 0.388752 5.2313 2.10216 6.50579L7.93891 10.802ZM17.3836 8.9417C19.5149 9.67144 22.5099 9.15754 24.7248 7.52332C27.3854 5.5602 27.9009 2.744 25.8531 1.23312C23.8193 -0.267487 20.0024 0.102525 17.3278 2.06564C15.113 3.69986 14.4164 5.90966 15.4055 7.48221L2.78474 16.7942C2.24147 17.195 2.24147 17.8425 2.78474 18.2434C3.32802 18.6442 4.20562 18.6442 4.7489 18.2434L13.3717 11.9018L21.9805 18.2537C22.5238 18.6545 23.4014 18.6545 23.9447 18.2537C24.488 17.8528 24.488 17.2053 23.9447 16.8045L15.3358 10.4526L17.3836 8.9417Z" fill="white"/>
</svg>
