<svg width="23" height="27" viewBox="0 0 23 27" fill="none" xmlns="http://www.w3.org/2000/svg">
<path fill-rule="evenodd" clip-rule="evenodd" d="M11.1912 0.257568C17.2026 0.257568 22.0933 5.18533 22.0933 11.243C22.0933 18.6895 13.5619 26.0263 11.1912 26.0263C8.82048 26.0263 0.289062 18.6895 0.289062 11.243C0.289062 5.18533 5.17983 0.257568 11.1912 0.257568ZM11.1912 2.23978C6.27268 2.23978 2.27127 6.27951 2.27127 11.243C2.27127 17.5583 9.70322 23.711 11.1912 24.0388C12.6792 23.7097 20.1111 17.5569 20.1111 11.243C20.1111 6.27951 16.1097 2.23978 11.1912 2.23978ZM11.1925 6.86492C13.5606 6.86492 15.4873 8.79163 15.4873 11.161C15.4873 13.5291 13.5606 15.4545 11.1925 15.4545C8.82444 15.4545 6.89774 13.5291 6.89774 11.161C6.89774 8.79163 8.82444 6.86492 11.1925 6.86492ZM11.1925 8.84713C9.9173 8.84713 8.87995 9.88449 8.87995 11.161C8.87995 12.4362 9.9173 13.4723 11.1925 13.4723C12.4677 13.4723 13.5051 12.4362 13.5051 11.161C13.5051 9.88449 12.4677 8.84713 11.1925 8.84713Z" fill="#F1333B"/>
</svg>
