<svg width="150" height="150" viewBox="0 0 150 150" fill="none" xmlns="http://www.w3.org/2000/svg">
<rect width="150" height="150" rx="20" fill="white"/>
<path d="M74.9998 31.54C71.0529 31.5409 67.5821 33.9664 66.2138 37.5032H60.0401C59.1462 37.5032 58.3 37.8926 57.7451 38.4706C57.1903 39.0485 56.8912 39.7719 56.7777 40.5122L49.8685 85.5317C49.7119 86.5535 50.1708 87.5172 50.8024 88.1044C51.434 88.6915 52.2492 89.026 53.1431 89.026H96.8565C97.7503 89.026 98.5686 88.6915 99.2002 88.1044C99.8318 87.5172 100.291 86.5535 100.134 85.5317L93.2249 40.5122C93.1114 39.7719 92.8093 39.0486 92.2544 38.4706C91.6996 37.8926 90.8534 37.5032 89.9595 37.5032H83.7888C82.4226 33.962 78.9509 31.5392 74.9998 31.54ZM74.9998 33.1086C78.0969 33.108 80.8017 34.8762 82.0707 37.5032H67.9197C69.1909 34.8764 71.9026 33.1093 74.9998 33.1086ZM60.0401 40.6282H89.9595C90.0217 40.6282 89.9623 40.6055 89.9961 40.6404C90.0298 40.6753 90.1051 40.8005 90.1334 40.9852L97.0182 85.843C96.9698 85.8696 96.9073 85.901 96.8595 85.901H53.1431C53.0974 85.901 53.0302 85.869 52.9813 85.843L59.8692 40.9852C59.8974 40.8005 59.9729 40.6753 60.0065 40.6404C60.04 40.6054 59.9779 40.6282 60.0401 40.6282ZM66.937 43.5243C65.0372 43.5243 63.4672 45.0531 63.4672 46.9392C63.4672 48.8253 65.0372 50.3511 66.937 50.3511C67.1193 50.3511 67.2959 50.3263 67.4711 50.2992C69.0955 52.7235 71.8903 54.2841 74.9998 54.2848C78.1069 54.2855 80.9002 52.7268 82.5254 50.3053C82.6801 50.3263 82.8322 50.3511 82.9923 50.3511C84.8922 50.3511 86.4652 48.8253 86.4652 46.9392C86.4652 45.0531 84.8922 43.5243 82.9923 43.5243C81.0925 43.5243 79.5225 45.0531 79.5225 46.9392C79.5225 48.0972 80.1177 49.1143 81.0148 49.7316C79.6525 51.5547 77.4588 52.7289 74.9998 52.7284C72.5258 52.7279 70.3204 51.54 68.9603 49.698C69.8324 49.0778 70.4099 48.0778 70.4099 46.9392C70.4099 45.0531 68.8369 43.5243 66.937 43.5243ZM66.937 45.0929C68.0107 45.0929 68.8413 45.9162 68.8413 46.9392C68.8413 47.5076 68.5695 47.9989 68.1577 48.34C67.9686 47.908 67.8126 47.4587 67.7122 46.985C67.6763 46.7884 67.5664 46.6131 67.4052 46.495C67.244 46.377 67.0437 46.3251 66.8455 46.3502C66.7369 46.3647 66.6326 46.4018 66.5394 46.4592C66.4461 46.5166 66.3659 46.5929 66.3041 46.6833C66.2422 46.7736 66.2 46.876 66.1803 46.9837C66.1605 47.0914 66.1636 47.202 66.1893 47.3085C66.2942 47.8029 66.4446 48.2768 66.6288 48.7336C65.714 48.586 65.0236 47.8571 65.0236 46.9392C65.0236 45.9162 65.8633 45.0929 66.937 45.0929ZM82.9923 45.0929C84.066 45.0929 84.9088 45.9162 84.9088 46.9392C84.9088 47.8318 84.2533 48.5451 83.3769 48.7214C83.5588 48.2683 83.7091 47.7984 83.8133 47.3085C83.8448 47.2049 83.8545 47.0959 83.8417 46.9883C83.8289 46.8808 83.7939 46.7771 83.7389 46.6838C83.6839 46.5905 83.6101 46.5097 83.5222 46.4464C83.4343 46.3832 83.3342 46.3389 83.2282 46.3164C83.1223 46.2939 83.0128 46.2936 82.9068 46.3157C82.8008 46.3377 82.7005 46.3816 82.6123 46.4445C82.5241 46.5073 82.45 46.5878 82.3946 46.6809C82.3391 46.7739 82.3037 46.8775 82.2904 46.985C82.187 47.4716 82.0202 47.931 81.8235 48.3735C81.3796 48.033 81.0789 47.5301 81.0789 46.9392C81.0789 45.9162 81.9186 45.0929 82.9923 45.0929ZM44.2472 93.2985C44.1922 93.2986 44.1371 93.3016 44.0824 93.3076C43.7936 93.3356 43.5184 93.4442 43.2876 93.621C43.0568 93.7979 42.8797 94.036 42.7763 94.3086L40.1884 101.154L32.9252 101.502C32.6074 101.515 32.3013 101.626 32.048 101.82C31.7947 102.013 31.6065 102.28 31.5084 102.584C31.4104 102.889 31.4074 103.216 31.4997 103.522C31.592 103.828 31.7753 104.099 32.0249 104.297L37.6981 108.884L35.7816 115.939C35.701 116.246 35.7144 116.569 35.8202 116.867C35.9259 117.166 36.1191 117.425 36.3742 117.61C36.6292 117.796 36.9343 117.9 37.2491 117.908C37.5639 117.915 37.8736 117.827 38.1376 117.655L44.235 113.645L50.3111 117.655C50.575 117.828 50.8852 117.917 51.2006 117.91C51.516 117.903 51.8217 117.799 52.0774 117.613C52.3331 117.428 52.5266 117.168 52.6324 116.869C52.7383 116.57 52.7514 116.246 52.6701 115.939L50.7536 108.884L56.4268 104.297C56.6764 104.099 56.8597 103.828 56.952 103.522C57.0443 103.216 57.0413 102.889 56.9433 102.584C56.8452 102.28 56.6569 102.013 56.4037 101.82C56.1504 101.626 55.8443 101.515 55.5265 101.502L48.2603 101.154L45.6907 94.3086C45.5792 94.0136 45.3817 93.7594 45.1242 93.5792C44.8666 93.3989 44.561 93.3011 44.2472 93.2985ZM75.0211 93.2985C74.9651 93.2985 74.909 93.3015 74.8533 93.3076C74.565 93.3362 74.2904 93.445 74.0602 93.6218C73.8301 93.7986 73.6534 94.0364 73.5502 94.3086L70.9623 101.154L63.6961 101.502C63.3782 101.515 63.0721 101.626 62.8189 101.82C62.5656 102.013 62.3773 102.28 62.2793 102.584C62.1813 102.889 62.1782 103.216 62.2706 103.522C62.3629 103.828 62.5462 104.099 62.7958 104.297L68.4721 108.884L66.5525 115.939C66.4712 116.246 66.4843 116.57 66.5901 116.869C66.696 117.168 66.8895 117.428 67.1452 117.613C67.4008 117.799 67.7066 117.903 68.022 117.91C68.3374 117.917 68.6476 117.828 68.9115 117.655L75.0089 113.645L81.085 117.655C81.3489 117.827 81.6587 117.915 81.9735 117.908C82.2883 117.9 82.5933 117.796 82.8484 117.61C83.1035 117.425 83.2966 117.166 83.4024 116.867C83.5082 116.569 83.5216 116.246 83.4409 115.939L81.5244 108.884L87.2007 104.297C87.4505 104.099 87.6338 103.828 87.726 103.521C87.8183 103.215 87.8149 102.888 87.7166 102.583C87.6182 102.279 87.4294 102.012 87.1757 101.818C86.922 101.625 86.6155 101.514 86.2974 101.502L79.0342 101.154L76.4646 94.3086C76.3531 94.0136 76.1557 93.7594 75.8981 93.5792C75.6405 93.3989 75.3349 93.3011 75.0211 93.2985ZM105.792 93.2985C105.737 93.2986 105.682 93.3016 105.627 93.3076C105.339 93.3362 105.064 93.445 104.834 93.6218C104.604 93.7986 104.427 94.0364 104.324 94.3086L101.736 101.154L94.47 101.502C94.1522 101.515 93.8461 101.626 93.5928 101.82C93.3395 102.013 93.1512 102.28 93.0532 102.584C92.9552 102.889 92.9522 103.216 93.0445 103.522C93.1368 103.828 93.3201 104.099 93.5697 104.297L99.2429 108.884L97.3264 115.939C97.2451 116.246 97.2582 116.57 97.3641 116.869C97.4699 117.168 97.6634 117.428 97.9191 117.613C98.1748 117.799 98.4805 117.903 98.7959 117.91C99.1113 117.917 99.4215 117.828 99.6854 117.655L105.78 113.645L111.859 117.655C112.123 117.827 112.433 117.915 112.747 117.908C113.062 117.9 113.367 117.796 113.622 117.61C113.877 117.425 114.071 117.166 114.176 116.867C114.282 116.569 114.296 116.246 114.215 115.939L112.298 108.884L117.972 104.297C118.221 104.099 118.404 103.828 118.497 103.522C118.589 103.216 118.586 102.889 118.488 102.584C118.39 102.28 118.202 102.013 117.948 101.82C117.695 101.626 117.389 101.515 117.071 101.502L109.805 101.154L107.239 94.3086C107.127 94.0132 106.929 93.7586 106.671 93.5783C106.413 93.398 106.106 93.3005 105.792 93.2985ZM44.235 99.283L45.7121 103.217C45.8175 103.504 46.0043 103.754 46.2495 103.936C46.4946 104.117 46.7873 104.223 47.0914 104.239L51.2693 104.45L48.01 107.071C47.7746 107.264 47.6004 107.522 47.5088 107.813C47.4172 108.104 47.4121 108.416 47.4943 108.71L48.5868 112.778L45.0773 110.465C44.8237 110.298 44.5273 110.209 44.2243 110.209C43.9213 110.209 43.6249 110.298 43.3714 110.465L39.8649 112.778L40.9757 108.71C41.0555 108.414 41.0471 108.101 40.9516 107.809C40.8562 107.518 40.6778 107.261 40.4386 107.071L37.1793 104.45L41.3602 104.239C41.6643 104.223 41.9571 104.117 42.2022 103.936C42.4474 103.754 42.6342 103.504 42.7396 103.217L44.235 99.283ZM75.0089 99.283L76.4829 103.217C76.5886 103.504 76.7759 103.755 77.0216 103.936C77.2674 104.118 77.5607 104.223 77.8654 104.239L82.0432 104.45L78.784 107.071C78.548 107.264 78.3732 107.521 78.281 107.812C78.1889 108.104 78.1833 108.416 78.2652 108.71L79.3577 112.778L75.8512 110.465C75.5976 110.298 75.3012 110.209 74.9982 110.209C74.6953 110.209 74.3988 110.298 74.1453 110.465L70.6358 112.778L71.7496 108.71C71.8294 108.414 71.821 108.101 71.7256 107.809C71.6301 107.518 71.4517 107.261 71.2125 107.071L67.9533 104.45L72.1311 104.239C72.4358 104.223 72.7291 104.118 72.9749 103.936C73.2206 103.755 73.4079 103.504 73.5136 103.217L75.0089 99.283ZM105.78 99.283L107.257 103.217C107.362 103.504 107.549 103.754 107.794 103.936C108.039 104.117 108.332 104.223 108.636 104.239L112.817 104.45L109.558 107.071C109.322 107.264 109.147 107.521 109.055 107.812C108.963 108.104 108.957 108.416 109.039 108.71L110.132 112.778L106.625 110.465C106.372 110.298 106.075 110.209 105.772 110.209C105.469 110.209 105.173 110.298 104.919 110.465L101.41 112.778L102.521 108.71C102.601 108.414 102.593 108.101 102.498 107.81C102.403 107.519 102.225 107.262 101.986 107.071L98.7272 104.45L102.905 104.239C103.209 104.223 103.502 104.117 103.747 103.936C103.992 103.754 104.179 103.504 104.284 103.217L105.78 99.283Z" fill="#102A7F"/>
</svg>
