<svg width="35" height="26" viewBox="0 0 35 26" fill="none" xmlns="http://www.w3.org/2000/svg">
<path d="M33.9698 23.8113L30.269 20.6463C30.5437 20.4816 30.7472 20.2613 30.8546 20.0124C30.9619 19.7636 30.9685 19.497 30.8734 19.2454C30.7783 18.9939 30.5857 18.7683 30.3193 18.5963C30.0528 18.4244 29.7242 18.3136 29.3736 18.2775C29.3779 18.2624 29.3823 18.2473 29.386 18.232C29.4482 17.9706 29.404 17.7014 29.259 17.4585C29.1139 17.2156 28.8744 17.0099 28.5709 16.8674C28.2674 16.7249 27.9134 16.652 27.5538 16.658C27.1941 16.6639 26.8449 16.7484 26.5503 16.9008L26.139 17.1135L24.646 15.8368C24.5993 15.7971 24.5649 15.7502 24.5455 15.6996C24.526 15.649 24.5218 15.5959 24.5332 15.544C24.5345 15.538 24.5357 15.532 24.5365 15.5259L25.2405 10.8571C25.3382 10.3987 25.263 9.92918 25.023 9.50018C25.0191 9.49331 25.015 9.48654 25.0106 9.47986L19.7124 1.45172C19.6207 1.29245 19.4788 1.15165 19.2985 1.04107C19.1181 0.930493 18.9045 0.853337 18.6756 0.81604C18.4466 0.778743 18.2088 0.782387 17.9821 0.826668C17.7555 0.870948 17.5464 0.954582 17.3724 1.07059C17.1985 0.954582 16.9894 0.870948 16.7627 0.826667C16.5361 0.782386 16.2983 0.778742 16.0693 0.816039C15.8404 0.853336 15.6268 0.930493 15.4464 1.04107C15.2661 1.15165 15.1242 1.29245 15.0326 1.45172L9.73436 9.47986C9.72996 9.48654 9.72584 9.49331 9.72199 9.50018C9.48197 9.92918 9.40671 10.3987 9.50448 10.8571L10.2084 15.5259C10.2093 15.532 10.2104 15.538 10.2117 15.544C10.2231 15.5959 10.219 15.649 10.1995 15.6996C10.18 15.7502 10.1457 15.797 10.099 15.8368L8.60598 17.1135L8.1947 16.9008C7.90012 16.7484 7.55092 16.6639 7.19125 16.6579C6.83158 16.652 6.4776 16.7249 6.17406 16.8674C5.87053 17.0099 5.63108 17.2156 5.486 17.4585C5.34091 17.7014 5.29671 17.9706 5.35897 18.232C5.36262 18.2473 5.36707 18.2625 5.37139 18.2776C5.02086 18.3137 4.69223 18.4245 4.42585 18.5964C4.15947 18.7684 3.96691 18.994 3.87182 19.2455C3.77674 19.497 3.78325 19.7636 3.89056 20.0124C3.99788 20.2613 4.20132 20.4816 4.47593 20.6463L0.775186 23.8113C0.690338 23.8838 0.648032 23.9783 0.657575 24.0739C0.667118 24.1694 0.727728 24.2583 0.826072 24.3209C0.924416 24.3835 1.05244 24.4147 1.18197 24.4077C1.31151 24.4006 1.43195 24.3559 1.5168 24.2833L5.27867 21.0661L9.9308 23.4724L8.3603 24.8656C8.27733 24.9393 8.23742 25.0343 8.24934 25.1297C8.26126 25.2251 8.32403 25.3131 8.42386 25.3743C8.52369 25.4356 8.6524 25.4651 8.78171 25.4563C8.91101 25.4476 9.03031 25.4013 9.11339 25.3277L10.7356 23.8887L11.2706 24.1654C11.5652 24.3178 11.9144 24.4023 12.2741 24.4082C12.6337 24.4142 12.9877 24.3413 13.2912 24.1988C13.5948 24.0563 13.8342 23.8506 13.9793 23.6077C14.1244 23.3648 14.1686 23.0956 14.1063 22.8342C14.1026 22.8188 14.0982 22.8036 14.0938 22.7883C14.4554 22.751 14.7933 22.6343 15.0637 22.4534C15.334 22.2724 15.5243 22.0356 15.6097 21.7737C15.6951 21.5119 15.6717 21.2371 15.5425 20.9852C15.4133 20.7333 15.1843 20.5159 14.8854 20.3614L14.7748 20.3042L17.1478 18.1987C17.2289 18.1252 17.304 18.0481 17.3724 17.9678C17.4403 18.0475 17.5148 18.1241 17.5955 18.1971L19.9264 20.3268L19.8595 20.3614C19.5604 20.5159 19.3312 20.7332 19.2019 20.9852C19.0725 21.2371 19.0491 21.512 19.1345 21.7739C19.2199 22.0358 19.4103 22.2727 19.6808 22.4536C19.9514 22.6346 20.2895 22.7512 20.6511 22.7883C20.6468 22.8036 20.6423 22.8188 20.6386 22.8342C20.5767 23.0956 20.6211 23.3646 20.7662 23.6074C20.9114 23.8502 21.1508 24.0558 21.4542 24.1982C21.7576 24.3406 22.1114 24.4136 22.471 24.4077C22.8305 24.4019 23.1797 24.3176 23.4743 24.1654L23.8911 23.9498L25.3947 25.3237C25.4763 25.3981 25.5947 25.4456 25.7238 25.4557C25.8528 25.4658 25.9821 25.4377 26.0831 25.3775C26.184 25.3173 26.2485 25.2301 26.2623 25.1348C26.2761 25.0396 26.2381 24.9442 26.1567 24.8696L24.695 23.534L29.4663 21.0661L33.2281 24.2834C33.2702 24.3193 33.3214 24.3488 33.3788 24.3701C33.4363 24.3914 33.4988 24.4042 33.563 24.4077C33.6271 24.4112 33.6916 24.4053 33.7526 24.3904C33.8137 24.3755 33.8702 24.3519 33.9189 24.3209C33.9676 24.2899 34.0075 24.2521 34.0364 24.2097C34.0653 24.1674 34.0827 24.1212 34.0874 24.0739C34.0921 24.0265 34.0841 23.979 34.064 23.9339C34.0438 23.8889 34.0118 23.8472 33.9698 23.8113V23.8113ZM13.0021 23.4221C12.8741 23.5564 12.6791 23.6477 12.4599 23.6762C12.2408 23.7046 12.0153 23.6677 11.8329 23.5736L5.14209 20.1129C4.96 20.0186 4.83613 19.8747 4.79771 19.713C4.75928 19.5513 4.80943 19.385 4.93715 19.2505C5.06486 19.1161 5.25969 19.0245 5.47883 18.996C5.69796 18.9675 5.92347 19.0044 6.10581 19.0985L6.10638 19.0988L6.66524 19.3878C6.66693 19.3887 6.66855 19.3896 6.67024 19.3904L12.0687 22.1826C12.0736 22.1852 12.0784 22.1878 12.0835 22.1903L12.797 22.5593C12.9792 22.6537 13.1032 22.7976 13.1417 22.9594C13.1801 23.1211 13.1299 23.2876 13.0021 23.4221H13.0021ZM14.5286 21.8161C14.4006 21.9504 14.2056 22.0418 13.9864 22.0702C13.7672 22.0986 13.5417 22.0617 13.3593 21.9676L7.22152 18.793C7.21887 18.7916 7.21632 18.7903 7.21364 18.7889L6.66862 18.507C6.48629 18.4127 6.3622 18.2689 6.32365 18.107C6.2851 17.9452 6.33525 17.7788 6.46307 17.6442C6.59088 17.5097 6.78589 17.4181 7.00519 17.3897C7.2245 17.3613 7.45013 17.3983 7.63246 17.4926L8.40059 17.8899C8.40486 17.8922 8.40915 17.8944 8.4135 17.8965L14.3231 20.9532C14.4134 20.9999 14.4904 21.0592 14.5496 21.1279C14.6088 21.1965 14.6491 21.2731 14.6682 21.3532C14.6872 21.4334 14.6847 21.5155 14.6608 21.5949C14.6368 21.6743 14.5919 21.7495 14.5286 21.8161H14.5286ZM16.8827 9.21694C16.2872 9.22552 15.7165 9.39427 15.2778 9.69149C14.839 9.98871 14.5625 10.3939 14.5003 10.831L14.0545 13.9118C14.0409 14.007 14.0791 14.1023 14.1607 14.1767C14.2423 14.2512 14.3606 14.2987 14.4896 14.3088C14.6186 14.319 14.7478 14.291 14.8488 14.2309C14.9498 14.1709 15.0145 14.0837 15.0284 13.9885L15.4742 10.9077C15.5112 10.6481 15.6741 10.407 15.933 10.2291C16.1918 10.0511 16.5291 9.94825 16.8827 9.93939V16.7203C16.8824 17.0914 16.7091 17.4511 16.3919 17.7391L13.9701 19.888L9.41208 17.5304L10.8407 16.3088C10.9795 16.1905 11.0817 16.0513 11.1404 15.901C11.1991 15.7506 11.2129 15.5926 11.1807 15.438L10.4767 10.7689C10.4758 10.763 10.4747 10.7572 10.4735 10.7515C10.4023 10.4256 10.4537 10.0915 10.6219 9.78568L15.9191 1.75909C15.9235 1.75245 15.9276 1.74568 15.9315 1.73886C15.9752 1.66094 16.0542 1.59661 16.155 1.55683C16.2559 1.51705 16.3722 1.50427 16.4844 1.52066C16.5965 1.53706 16.6975 1.58161 16.7701 1.64675C16.8428 1.71189 16.8825 1.79359 16.8827 1.87794V9.21694ZM18.3558 17.7415C18.037 17.4531 17.8627 17.0924 17.8622 16.7203V9.93939C18.2158 9.94825 18.5531 10.0511 18.812 10.2291C19.0708 10.407 19.2338 10.6481 19.2707 10.9077L19.7165 13.9885C19.7305 14.0837 19.7951 14.1709 19.8961 14.2309C19.9972 14.291 20.1264 14.319 20.2554 14.3088C20.3844 14.2987 20.5026 14.2512 20.5842 14.1767C20.6658 14.1023 20.704 14.007 20.6905 13.9118L20.2447 10.831C20.1824 10.3939 19.9059 9.98871 19.4672 9.69149C19.0285 9.39427 18.4577 9.22552 17.8622 9.21694V1.87794C17.8622 1.79351 17.9019 1.7117 17.9745 1.64645C18.0471 1.58121 18.1482 1.53658 18.2604 1.52017C18.3727 1.50376 18.4892 1.51659 18.59 1.55647C18.6909 1.59635 18.7699 1.66081 18.8135 1.73886C18.8173 1.74568 18.8214 1.75246 18.8258 1.75909L24.123 9.78573C24.2913 10.0916 24.3426 10.4256 24.2715 10.7515C24.2702 10.7572 24.2692 10.763 24.2683 10.7689L23.5643 15.438C23.5321 15.5926 23.5458 15.7506 23.6045 15.901C23.6632 16.0514 23.7655 16.1905 23.9043 16.3088L25.3329 17.5305L20.7303 19.911L18.3558 17.7415ZM20.2164 21.8161C20.153 21.7495 20.1081 21.6743 20.0842 21.5949C20.0602 21.5155 20.0577 21.4334 20.0768 21.3532C20.0959 21.2731 20.1361 21.1965 20.1953 21.1279C20.2545 21.0593 20.3315 20.9999 20.4218 20.9532L26.3321 17.8962C26.336 17.8943 26.3399 17.8923 26.3437 17.8902L27.1125 17.4926C27.2949 17.3983 27.5205 17.3613 27.7398 17.3897C27.9591 17.4181 28.1541 17.5097 28.2819 17.6442C28.4097 17.7787 28.4599 17.9452 28.4213 18.107C28.3828 18.2688 28.2587 18.4127 28.0764 18.507L22.0402 21.6291C22.0364 21.6309 22.0327 21.6329 22.029 21.6348L21.3856 21.9676C21.2032 22.0618 20.9777 22.0987 20.7585 22.0703C20.5393 22.0419 20.3443 21.9504 20.2164 21.8161ZM29.9478 19.7129C29.929 19.7931 29.8889 19.8698 29.8296 19.9384C29.7704 20.0071 29.6933 20.0664 29.6028 20.1129L22.9121 23.5736C22.7298 23.6679 22.5042 23.705 22.2849 23.6766C22.0656 23.6482 21.8706 23.5567 21.7427 23.4222C21.6148 23.2877 21.5646 23.1212 21.6031 22.9594C21.6416 22.7976 21.7657 22.6537 21.948 22.5593L28.6386 19.0987L28.639 19.0986L28.6391 19.0985C28.775 19.0282 28.9362 18.9892 29.1022 18.9865C29.2682 18.9838 29.4315 19.0174 29.5716 19.0832C29.7117 19.1489 29.8222 19.2439 29.8891 19.356C29.9561 19.468 29.9765 19.5923 29.9478 19.7129L29.9478 19.7129Z" fill="white" stroke="white" stroke-width="1.40957"/>
</svg>
